<svg width="681" height="348" viewBox="0 0 681 348" fill="none" xmlns="http://www.w3.org/2000/svg">
<path d="M547 31.6162C547 38.5198 541.404 44.1162 534.5 44.1162C527.596 44.1162 522 38.5198 522 31.6162C522 24.7127 527.596 19.1162 534.5 19.1162C541.404 19.1162 547 24.7127 547 31.6162Z" fill="#70BADD" fill-opacity="0.25"/>
<path d="M332.138 210.325C382.778 192.097 518.447 163.137 656 193.116" stroke="#0769D2" stroke-opacity="0.5"/>
<path d="M314.984 264.26C355.233 265.877 453.384 280.912 524 328.116" stroke="#0769D2" stroke-opacity="0.5"/>
<path d="M296.189 161.212C324.81 130.163 410.041 60.8749 522 32.1162" stroke="#0769D2" stroke-opacity="0.5"/>
<path d="M29.7454 119.846C45.5006 144.484 110.248 194.861 243.195 199.262" stroke="#0769D2" stroke-opacity="0.5"/>
<path d="M25.8621 304.411C58.8546 312.796 147.854 316.764 239.909 265.551" stroke="#0769D2" stroke-opacity="0.5"/>
<circle cx="668.5" cy="195.5" r="12.5" fill="#70BADD" fill-opacity="0.25"/>
<circle cx="535" cy="334.116" r="13" fill="#70BADD" fill-opacity="0.25"/>
<circle cx="23.308" cy="109.426" r="12.5" transform="rotate(-3.21643 23.308 109.426)" fill="#70BADD" fill-opacity="0.25"/>
<circle cx="14.0298" cy="300.78" r="12.5" transform="rotate(-3.21643 14.0298 300.78)" fill="#70BADD" fill-opacity="0.25"/>
<circle cx="279.5" cy="222.5" r="68.5" fill="#0769D2"/>
</svg>
