<svg width="34" height="34" viewBox="0 0 34 34" fill="none" xmlns="http://www.w3.org/2000/svg">
<path fill-rule="evenodd" clip-rule="evenodd" d="M20.633 32.4996C20.633 32.774 20.4102 32.9983 20.1344 32.9983C19.8601 32.9983 19.6362 32.7753 19.6362 32.4996L19.6483 26.2008C19.6497 25.4305 19.867 24.7322 20.3083 24.1171L18.2547 24.1198H13.0161C12.7404 24.1198 12.5165 23.8955 12.5165 23.6198C12.5165 22.5087 11.6159 21.608 10.5046 21.608C9.39369 21.608 8.49313 22.5087 8.49313 23.6198C8.49313 23.8955 8.2692 24.1198 7.99347 24.1198H4.01116C3.73543 24.1198 3.51115 23.8955 3.51115 23.6198V19.9889C2.07546 19.7486 1 18.5002 1 17.0181C1 15.536 2.07546 14.2879 3.51115 14.0473V10.4164C3.51115 10.1406 3.73543 9.91667 4.01116 9.91667H5.5376C5.5376 9.04973 5.52543 8.46447 5.94233 7.60309C6.22224 7.02722 6.66105 6.44195 7.31439 5.78714L9.10301 3.9924C9.35857 3.73576 9.42082 3.39496 9.4236 3.03608L9.43855 1.49451C9.44133 1.22013 9.66525 0.998616 9.94099 1.00001C10.2153 1.00279 10.4368 1.22674 10.4354 1.50251L10.4219 3.04443C10.4167 3.67212 10.2699 4.23826 9.81199 4.69764L8.02337 6.49203C7.10646 7.41148 6.53483 8.24573 6.53483 9.41V9.91911H9.80399L9.79599 9.016C9.79321 8.74162 10.0144 8.51593 10.2901 8.51315C10.5644 8.51037 10.7901 8.73189 10.7929 9.00765L10.8322 13.6533C10.8377 14.3585 11.4448 14.5609 11.9716 14.3787C12.272 14.274 12.5464 14.0379 12.6862 13.6654L13.497 11.4934C13.5186 11.4363 13.5499 11.3835 13.5919 11.3345L15.1935 9.54806C15.6472 9.04278 15.8659 8.47525 15.8659 7.79714L15.8781 1.49833C15.8781 1.22396 16.1007 1.00001 16.3764 1.00001C16.6507 1.00001 16.875 1.22257 16.875 1.49833L16.8628 7.79714C16.8614 8.58514 16.6344 9.29559 16.174 9.9205H23.0357C23.2749 8.48325 24.5232 7.40592 26.0062 7.40592C27.4895 7.40592 28.7378 8.48325 28.9781 9.9205H32.5C32.7743 9.9205 33 10.1431 33 10.4188V14.5091C33 14.7848 32.7771 15.0091 32.5 15.0091C31.3877 15.0091 30.4885 15.9098 30.4885 17.0209C30.4885 18.1319 31.3891 19.0326 32.5 19.0326C32.7771 19.0326 33 19.2569 33 19.5327V23.6229C33 23.8987 32.7771 24.1226 32.5 24.1226H30.9746C30.9746 24.9743 30.9802 25.5505 30.5674 26.3966C30.2875 26.9728 29.8501 27.558 29.1954 28.2129L27.4068 30.0073C27.1498 30.2642 27.089 30.605 27.0862 30.9636L27.074 32.5055C27.0712 32.7799 26.8456 33.0014 26.5712 33C26.2944 32.9972 26.0743 32.7729 26.0768 32.4971L26.0917 30.9556C26.0973 30.3279 26.2426 29.7614 26.6992 29.3024L28.4878 27.508C29.4061 26.5882 29.9763 25.7543 29.9763 24.59V24.1202H26.7086L26.7166 24.984C26.7193 25.2584 26.4965 25.4837 26.2221 25.4865C25.9478 25.4893 25.7225 25.2678 25.7211 24.992L25.6818 20.3464C25.6762 19.6415 25.0677 19.4391 24.542 19.621C24.2419 19.7257 23.9662 19.9621 23.8278 20.3342L23.0155 22.5063C22.995 22.5633 22.9623 22.6165 22.9203 22.6652L21.3191 24.4516C20.8653 24.9569 20.648 25.5247 20.6466 26.2025L20.6344 32.5013L20.633 32.4996ZM21.1723 23.1197L22.115 22.0685L22.8931 19.9844C23.6578 17.9389 26.6567 18.1413 26.6773 20.3377L26.7002 23.1183H31.9986V19.9872C30.5633 19.7469 29.4861 18.4985 29.4861 17.0163C29.4861 15.5346 30.5633 14.2862 31.9986 14.0455V10.9119L28.5146 10.913C28.2402 10.913 28.0149 10.689 28.0149 10.4133C28.0149 9.3022 27.1143 8.40153 26.0048 8.40153C24.8935 8.40153 23.9919 9.3022 23.9919 10.4133C23.9919 10.689 23.769 10.9119 23.4933 10.9119H18.7544V14.5035C18.7544 14.7789 18.5301 15.0032 18.2547 15.0032C17.1434 15.0032 16.2429 15.9039 16.2429 17.015C16.2429 18.1264 17.1434 19.0267 18.2547 19.0267C18.5301 19.0267 18.7544 19.251 18.7544 19.5268V23.1183H21.1706L21.1723 23.1197ZM17.7564 10.9105H15.3047L14.3962 11.9225L13.6177 14.0062C12.853 16.052 9.85267 15.8496 9.83494 13.6533L9.81199 10.9105H4.51221V14.5007C4.51221 14.7765 4.28794 15.0008 4.0122 15.0008C2.90127 15.0008 2.00071 15.9011 2.00071 17.0125C2.00071 18.1236 2.90127 19.0243 4.0122 19.0243C4.28794 19.0243 4.51221 19.2486 4.51221 19.5243V23.1145H7.53554C7.77615 21.6786 9.02408 20.6027 10.506 20.6027C11.9879 20.6027 13.2376 21.68 13.4765 23.1169H17.7564V19.9834C16.3208 19.7427 15.2449 18.4943 15.2449 17.0125C15.2449 15.5304 16.3208 14.282 17.7564 14.0417V10.9078V10.9105Z" fill="#0769D2" stroke="#0769D2" stroke-width="0.701432" stroke-miterlimit="2" stroke-linejoin="round"/>
</svg>
