<svg width="33" height="34" viewBox="0 0 33 34" fill="none" xmlns="http://www.w3.org/2000/svg">
<path d="M16.5004 1C19.4035 1 22.0992 2.51203 23.6215 4.99197C25.1452 7.47327 25.2786 10.569 23.9733 13.1723C22.669 15.7757 20.1139 17.5147 17.2212 17.7659L17.163 17.7713C17.1471 17.7713 17.1325 17.7713 17.1166 17.775C17.1007 17.7791 17.0811 17.7764 17.0638 17.7791C17.0465 17.7805 17.0279 17.7805 17.0123 17.7832C16.9964 17.7846 16.9724 17.7832 16.9541 17.7856H16.9182C16.8918 17.7856 16.864 17.7869 16.8376 17.7897H16.8112C16.7821 17.7897 16.7543 17.7897 16.7238 17.7937H16.2715C16.2423 17.7924 16.2146 17.7924 16.1841 17.7897H16.159C16.1313 17.7883 16.1049 17.7856 16.0785 17.7856H16.0426C16.0229 17.7856 16.0043 17.7832 15.9843 17.7832C15.9647 17.7832 15.9515 17.7818 15.9329 17.7791C15.9156 17.7778 15.8973 17.7791 15.8787 17.775L15.835 17.7713L15.7741 17.7659C12.8814 17.5151 10.3246 15.7743 9.02061 13.171C7.71665 10.5663 7.85142 7.47056 9.37513 4.98925C10.9002 2.50931 13.5972 0.998641 16.5004 1ZM3.93649 29.1419H3.99879V28.4422C4.00014 28.2416 3.9629 28.0438 3.88773 27.8579C3.81086 27.6748 3.69709 27.5089 3.55556 27.3709L1.69866 25.5044C1.24628 25.0596 0.993686 24.4488 1.00012 23.813V10.1113V10.1126C1.01366 9.15149 1.79381 8.37865 2.75138 8.37865C3.70894 8.37865 4.48943 9.15149 4.50263 10.1126V13.8657V13.8643C5.04507 13.551 5.7128 13.551 6.25524 13.8657C6.79633 14.179 7.13087 14.7591 7.13087 15.3872V19.4655L11.0262 23.4401C11.468 23.8833 11.7152 24.4876 11.7098 25.1153V29.1433C12.1821 29.1739 12.5485 29.5668 12.5499 30.0422V32.1001C12.5499 32.339 12.4561 32.5674 12.2881 32.7359C12.1198 32.9059 11.8913 33 11.6533 33H3.93682C3.44077 32.9986 3.03987 32.5962 3.03851 32.1001V30.0422C3.04122 29.5457 3.44213 29.1446 3.93682 29.1419H3.93649ZM11.6529 30.0208H3.93649C3.93005 30.0208 3.92328 30.0235 3.92057 30.0273C3.91549 30.0313 3.91414 30.0368 3.91278 30.0419V32.0997C3.91414 32.1052 3.91549 32.1103 3.92057 32.1143C3.92328 32.1198 3.93005 32.1221 3.93649 32.1208H11.6529C11.6597 32.1208 11.6651 32.1184 11.6688 32.1143C11.6729 32.1103 11.6742 32.1052 11.6742 32.0997V30.0419C11.6742 30.0368 11.6729 30.0313 11.6688 30.0273C11.6651 30.0235 11.6597 30.0208 11.6529 30.0208ZM6.25795 18.7684V15.3872C6.25795 14.9012 5.86517 14.507 5.38097 14.507C4.89541 14.507 4.50263 14.9012 4.50263 15.3872V18.8429C5.04372 18.5441 5.69316 18.5163 6.25795 18.7684ZM8.58449 25.328C8.75244 25.4993 8.74973 25.7767 8.57907 25.9466C8.4074 26.1152 8.13076 26.1138 7.96146 25.9412C6.6575 24.6058 5.34778 23.2716 4.04755 21.9305C3.89416 21.7714 3.76718 21.5869 3.67576 21.3864L3.66527 21.365C3.64427 21.316 3.62429 21.264 3.60703 21.2137L3.60059 21.1937C3.59382 21.1726 3.58874 21.1526 3.58061 21.1328C3.57418 21.1128 3.57012 21.0917 3.5647 21.0717L3.56335 21.073C3.51967 20.9072 3.49867 20.7372 3.49867 20.566C3.49732 20.4399 3.50917 20.3151 3.53423 20.1901C3.55556 20.0772 3.58739 19.9644 3.62836 19.8557V10.1113C3.62971 9.75542 3.41538 9.43289 3.08727 9.29627C2.75916 9.16067 2.38094 9.23782 2.13105 9.49135C1.96582 9.65448 1.87439 9.87879 1.87439 10.1113V23.813C1.87033 24.0135 1.90758 24.2113 1.98139 24.3972C2.05825 24.5804 2.17203 24.7449 2.31492 24.8842L4.17317 26.751V26.7497C4.62554 27.1956 4.87679 27.8063 4.87171 28.4408V29.1419H10.8342V25.1153C10.8365 24.9189 10.801 24.7224 10.7295 24.5389C10.654 24.3584 10.543 24.1939 10.4041 24.056L6.23899 19.8023C6.0365 19.595 5.76156 19.4771 5.47205 19.4716C5.18492 19.4662 4.90591 19.5763 4.69936 19.7782L4.69428 19.7836C4.59778 19.8777 4.51956 19.9892 4.46538 20.1139C4.419 20.219 4.38852 20.3304 4.37532 20.4446C4.37159 20.4779 4.37024 20.5123 4.37024 20.5469C4.36888 20.6465 4.38073 20.7447 4.40579 20.8416C4.41256 20.8722 4.4217 20.9014 4.4322 20.9306V20.9347V20.9333C4.48401 21.0778 4.56459 21.2093 4.67159 21.3194L8.58449 25.328ZM29.0639 30.0222H21.3461C21.3393 30.0222 21.3339 30.0249 21.3315 30.0286C21.3275 30.0327 21.3248 30.0381 21.3234 30.0432V32.1011C21.3248 32.1065 21.3275 32.1116 21.3315 32.1157C21.3353 32.1211 21.3407 32.1235 21.3471 32.1221H29.0635C29.0703 32.1221 29.0757 32.1198 29.0795 32.1157C29.0849 32.1116 29.0862 32.1065 29.0876 32.1011V30.0419C29.0862 30.0368 29.0849 30.0313 29.0795 30.0273C29.0757 30.0235 29.0703 30.0208 29.0635 30.0208L29.0639 30.0222ZM29.0016 29.1433H29.0639C29.5582 29.1433 29.9605 29.5453 29.9619 30.0419V32.0997C29.9619 32.3386 29.8681 32.5684 29.6998 32.7369C29.5318 32.9055 29.3033 33 29.0649 33H21.3471C20.8514 33 20.4491 32.5976 20.4491 32.0997V30.0419C20.4519 29.5681 20.8182 29.1766 21.2892 29.1447V25.1156C21.2852 24.4876 21.5323 23.8836 21.9742 23.4401L25.8681 19.4641V15.3858C25.8668 14.7568 26.2013 14.1753 26.7438 13.8619C27.2862 13.5472 27.9553 13.5486 28.4977 13.8633V10.1116C28.5109 9.15047 29.2911 8.379 30.249 8.379C31.2066 8.379 31.9867 9.15013 31.9999 10.1116V23.8133C32.0026 24.1277 31.942 24.4397 31.8215 24.7292C31.7013 25.0198 31.5238 25.2828 31.3017 25.5044L29.4435 27.3709C29.1523 27.65 28.9924 28.0388 29.0016 28.4425V29.1433ZM28.4977 15.3869C28.4977 14.9009 28.105 14.5066 27.6194 14.5066C27.1352 14.5066 26.7424 14.9009 26.7424 15.3869V18.7681C27.3072 18.5159 27.9567 18.5438 28.4977 18.8425V15.3869ZM25.0403 25.9398C24.871 26.1124 24.5943 26.1152 24.4227 25.9452C24.252 25.7763 24.2493 25.499 24.4172 25.3263L28.3284 21.3198C28.4354 21.2097 28.5164 21.0781 28.5678 20.9337V20.9296C28.577 20.899 28.5875 20.8712 28.5942 20.8406V20.8419C28.6193 20.7451 28.6312 20.6468 28.6298 20.5473C28.6298 20.5126 28.6274 20.4783 28.6234 20.445C28.6102 20.3308 28.5797 20.2193 28.5346 20.1143C28.4791 19.9909 28.4012 19.8781 28.3047 19.7839L28.302 19.7785H28.3007C28.0931 19.578 27.8151 19.4679 27.5283 19.472C27.2385 19.4771 26.9622 19.5953 26.7583 19.8023L22.5959 24.056C22.3115 24.3336 22.1554 24.7173 22.1648 25.1156V29.1423H28.1273V28.4425C28.1205 27.8066 28.3731 27.1959 28.8242 26.751L30.6827 24.8845H30.6841C30.975 24.6058 31.1351 24.2167 31.1243 23.8133V10.1116V10.113C31.1151 9.63375 30.7264 9.25005 30.249 9.25005C29.7712 9.25005 29.3825 9.63375 29.372 10.113V19.856C29.413 19.9648 29.4448 20.0776 29.4672 20.1904C29.4895 20.3151 29.5017 20.4402 29.5017 20.5663C29.5027 20.7376 29.4804 20.9075 29.4367 21.0734C29.4316 21.0931 29.4262 21.1118 29.4194 21.1345C29.413 21.1556 29.4076 21.1743 29.4025 21.1954L29.3957 21.2154C29.3784 21.2644 29.3602 21.3164 29.3375 21.3667L29.327 21.3881L29.3256 21.3867C29.2332 21.5872 29.1072 21.7718 28.9525 21.9308C27.6526 23.2719 26.3429 24.6058 25.0386 25.9415L25.0403 25.9398ZM16.5 4.51277C17.9682 4.51277 19.2921 5.40082 19.8532 6.76297C20.4153 8.12512 20.1044 9.69153 19.066 10.7339C18.9034 10.897 18.725 11.0431 18.5343 11.1733C20.1268 11.5757 21.5672 12.4386 22.6744 13.656C23.7089 12.1436 24.1572 10.3023 23.9337 8.48231C23.7102 6.66067 22.8305 4.98415 21.4602 3.76814C20.0912 2.55315 18.3254 1.88159 16.4976 1.88159C14.6699 1.88159 12.9054 2.55315 11.5351 3.76814C10.1661 4.98415 9.28675 6.66067 9.06294 8.48231C8.83946 10.3023 9.28675 12.1436 10.3222 13.656C11.4294 12.4386 12.8685 11.5757 14.4609 11.1733C14.2734 11.0431 14.0959 10.896 13.9348 10.7339C12.8963 9.69187 12.5854 8.12512 13.1462 6.76297C13.7086 5.40082 15.0325 4.51277 16.5007 4.51277H16.5ZM18.447 6.20017C17.5185 5.2693 16.0636 5.12588 14.9722 5.85895C13.8799 6.59168 13.4567 7.99632 13.9591 9.21369C14.462 10.4311 15.7514 11.1227 17.0397 10.8664C18.3281 10.6088 19.2552 9.47504 19.2552 8.15673C19.2566 7.42264 18.9654 6.71777 18.447 6.20017ZM22.132 14.3608C20.7102 12.7319 18.6573 11.7986 16.5 11.7986C14.3428 11.7986 12.2898 12.7319 10.868 14.3608C10.9754 14.4815 11.0864 14.6011 11.2016 14.7167C12.5333 16.056 14.3218 16.8418 16.2064 16.9121L16.2129 16.9135H16.3121C16.3412 16.9149 16.3703 16.9149 16.3995 16.9149H16.4099C16.4404 16.9149 16.4709 16.9162 16.5 16.9162C16.5305 16.9162 16.561 16.9149 16.5901 16.9149H16.5979C16.6283 16.9149 16.6561 16.9149 16.6866 16.9135H16.7858L16.7909 16.9121H16.7922C18.6772 16.8418 20.4668 16.0574 21.7985 14.7167C21.9122 14.6011 22.0233 14.4815 22.132 14.3608Z" fill="#0769D2" stroke="#0769D2" stroke-width="0.701394" stroke-miterlimit="2" stroke-linejoin="round"/>
</svg>
