<svg width="29" height="31" viewBox="0 0 29 31" fill="none" xmlns="http://www.w3.org/2000/svg">
<g clip-path="url(#clip0_219_389)">
<path d="M28.201 22.5101L25.1516 14.7288C24.963 14.2493 24.4186 14.0104 23.9411 14.1992L22.1691 14.8946C21.936 14.9846 21.753 15.1629 21.6543 15.3925C21.5554 15.6221 21.5496 15.8755 21.6395 16.1086L21.6974 16.2599L21.5836 16.3178C21.2926 16.4688 20.9926 16.4837 20.688 16.3609L17.3531 15.0221C16.5302 14.6901 15.68 14.7401 14.9005 15.1641L14.5946 15.3299L13.8966 14.9514C13.0964 14.5184 12.2497 14.4332 11.3826 14.7038C11.1268 14.782 10.8675 14.8696 10.6176 14.9537C9.40711 15.3643 8.25775 15.7507 6.97454 15.4199L7.03245 15.2744C7.12236 15.0413 7.11654 14.7879 7.01761 14.5583C6.91867 14.3287 6.73594 14.1535 6.50287 14.0604L4.73082 13.3647C4.25129 13.1761 3.70658 13.4147 3.52035 13.8946L0.465095 21.6782C0.276251 22.1577 0.515143 22.7021 0.994673 22.8887L2.76672 23.5844C2.877 23.6274 2.99398 23.6478 3.10775 23.6478C3.45081 23.6478 3.77932 23.4558 3.93965 23.1386L4.89435 23.7991L4.55129 24.3924C4.15236 25.0823 4.39096 25.9701 5.08086 26.3679C5.30812 26.4985 5.55487 26.5599 5.80249 26.5599C5.86621 26.5599 5.9311 26.5564 5.99133 26.5486C5.93546 27.0988 6.19821 27.6569 6.70742 27.9511C6.92915 28.0797 7.17561 28.1434 7.42585 28.1434C7.55068 28.1434 7.67929 28.1262 7.80412 28.0934C7.8917 28.0707 7.97259 28.0375 8.05436 28C8.15649 28.3672 8.39189 28.6695 8.7204 28.8615C8.94766 28.9925 9.19441 29.0536 9.44203 29.0536C9.64571 29.0536 9.84678 29.0105 10.0333 28.9288C10.0333 28.9322 10.0365 28.9378 10.0365 28.9401C10.1354 29.3152 10.3775 29.6265 10.7084 29.8186C10.9356 29.9495 11.1824 30.0109 11.43 30.0109C11.9302 30.0109 12.4167 29.7516 12.6838 29.289L12.7338 29.2049L14.1625 30.1916C14.4105 30.363 14.6921 30.445 14.9718 30.445C15.4254 30.445 15.8709 30.23 16.147 29.8311C16.3018 29.6096 16.3859 29.3539 16.3973 29.0888C16.6065 29.1877 16.8337 29.2401 17.0668 29.2401C17.1622 29.2401 17.2588 29.2311 17.3543 29.2139C17.768 29.1377 18.1283 28.9061 18.3637 28.5627C18.5592 28.2808 18.6488 27.9581 18.6398 27.6374C18.826 27.7101 19.0204 27.7477 19.2159 27.7477C19.7161 27.7477 20.2085 27.5123 20.5108 27.0703C20.6993 26.7965 20.7925 26.4793 20.7869 26.1543C20.9845 26.2384 21.1937 26.2791 21.4006 26.2791C21.9008 26.2791 22.3928 26.044 22.6952 25.6017C22.934 25.2584 23.0213 24.8391 22.9454 24.4265C22.9364 24.3709 22.9227 24.3162 22.9079 24.2638L24.5376 23.525L24.6831 23.8981C24.8286 24.2673 25.181 24.4914 25.556 24.4914C25.6698 24.4914 25.7836 24.4707 25.8971 24.4276L27.6691 23.7319C28.151 23.5343 28.3875 22.9896 28.201 22.5101ZM3.02249 22.9375L1.24811 22.2418C1.12532 22.1953 1.06509 22.0498 1.11194 21.9281L4.16138 14.148C4.19862 14.0549 4.29203 13.9935 4.38863 13.9935C4.41802 13.9935 4.44653 13.999 4.47272 14.0104L6.24477 14.7061C6.30268 14.7288 6.35272 14.7753 6.37891 14.8344C6.40481 14.8926 6.40481 14.9595 6.38211 15.0174L3.33355 22.8011C3.28466 22.9262 3.14528 22.9876 3.02249 22.9375ZM5.42858 25.7655C5.07068 25.5587 4.94556 25.096 5.15244 24.7378L5.98231 23.3001C6.08124 23.1284 6.24361 23.0036 6.43914 22.9512C6.63468 22.8988 6.83807 22.925 7.00975 23.024C7.36794 23.2308 7.49277 23.6935 7.28589 24.0514L6.45631 25.4891C6.35738 25.6608 6.19472 25.7859 5.99919 25.8383C5.80481 25.8939 5.60375 25.8677 5.42858 25.7655ZM7.05514 27.3488C6.69724 27.1419 6.57212 26.6792 6.779 26.3213L7.05863 25.8383L7.8885 24.4003L8.46114 23.4081C8.6011 23.1671 8.85454 23.033 9.11264 23.033C9.24096 23.033 9.36841 23.0647 9.48771 23.1351C9.65939 23.234 9.78422 23.3967 9.83659 23.5922C9.88897 23.7878 9.86278 23.9912 9.76385 24.1628L8.08171 27.0761C7.87599 27.4328 7.41304 27.5556 7.05514 27.3488ZM9.6364 28.3355C9.44115 28.3875 9.23747 28.3614 9.06579 28.2627C8.89441 28.1638 8.76929 28.0011 8.71691 27.8056C8.66483 27.6101 8.69072 27.4067 8.78966 27.235L9.78189 25.5153C9.88082 25.3436 10.0435 25.2188 10.239 25.1664C10.4345 25.114 10.6379 25.1402 10.8096 25.2392C10.9813 25.3381 11.1061 25.5005 11.1585 25.696C11.2109 25.8915 11.1847 26.0949 11.0858 26.2666L10.0935 27.9863C9.99459 28.158 9.83426 28.2831 9.6364 28.3355ZM11.0537 29.2174C10.8824 29.1185 10.7572 28.9558 10.7049 28.7606C10.6528 28.565 10.6787 28.3614 10.7776 28.19L11.4291 27.0636C11.5277 26.8919 11.6904 26.7668 11.8859 26.7144C12.0815 26.6623 12.2849 26.6882 12.4565 26.7872C12.8144 26.9941 12.9396 27.4567 12.7327 27.8149L12.0815 28.9413C11.8746 29.3015 11.4116 29.4231 11.0537 29.2174ZM15.5729 29.4321C15.3433 29.7642 14.8865 29.8482 14.5545 29.6187L13.0792 28.6002L13.3327 28.1603C13.5247 27.8262 13.5681 27.4477 13.484 27.0988L15.3867 28.4114C15.547 28.5217 15.655 28.6878 15.689 28.8831C15.7265 29.0774 15.6829 29.2718 15.5729 29.4321ZM22.128 25.2016C21.8516 25.6006 21.3049 25.6995 20.9059 25.4257L16.4776 22.3646C16.3207 22.2567 16.1048 22.2951 15.9945 22.4519C15.8866 22.6087 15.9253 22.8249 16.0821 22.9352L19.7158 25.4458C19.9079 25.5799 20.0362 25.7778 20.0796 26.0108C20.1226 26.2439 20.0737 26.4767 19.9396 26.669C19.6635 27.068 19.1167 27.1666 18.7178 26.8928L14.269 23.8195C14.1122 23.7115 13.8963 23.7502 13.786 23.9071C13.6781 24.0639 13.7168 24.2798 13.8736 24.3901L17.5687 26.942C17.9677 27.2181 18.0666 27.7649 17.7925 28.1638C17.6583 28.3558 17.4584 28.4841 17.2277 28.5275C16.9946 28.5706 16.7616 28.5185 16.5695 28.3875L13.1075 25.9963C12.9506 25.888 12.7347 25.9267 12.6244 26.0836C12.6209 26.0871 12.6186 26.0929 12.6186 26.0949C12.3835 26.0018 12.1301 25.9701 11.8766 26.0076C11.888 25.845 11.8731 25.6791 11.8301 25.5153C11.7311 25.1402 11.4891 24.8289 11.1582 24.6368C10.9251 24.5027 10.6638 24.4355 10.399 24.4448C10.5614 24.1276 10.6001 23.7639 10.507 23.4115C10.4081 23.0388 10.166 22.7248 9.83514 22.5328C9.16909 22.1487 8.32467 22.3556 7.90625 22.9864C7.78346 22.7592 7.5984 22.5613 7.3595 22.4248C6.6696 22.0259 5.78183 22.2645 5.38406 22.9544L5.24439 23.1933L4.20531 22.4772L6.71615 16.0667C7.14709 16.186 7.5597 16.2384 7.96415 16.2384C8.97705 16.2384 9.9169 15.9212 10.8364 15.6096C11.0808 15.5255 11.3366 15.4414 11.5845 15.362C12.2686 15.1493 12.9346 15.2165 13.5634 15.5575L13.8658 15.7234L10.6592 17.4637C9.88489 17.8853 9.59741 18.8572 10.0158 19.6312C10.3033 20.1631 10.8568 20.4666 11.4242 20.4666C11.6796 20.4666 11.9424 20.4052 12.1833 20.271L14.6214 18.9468L21.8993 23.972C22.0914 24.1061 22.2197 24.3063 22.2631 24.537C22.3084 24.7733 22.2584 25.0099 22.1278 25.2019L22.128 25.2016ZM22.57 23.6478C22.4883 23.5582 22.3984 23.4796 22.2962 23.4092L14.8458 18.2592C14.7355 18.183 14.5955 18.1807 14.482 18.2388L11.8539 19.6641C11.4143 19.9027 10.8652 19.7403 10.6266 19.3003C10.3877 18.8604 10.5504 18.3116 10.9903 18.0727L15.2266 15.7711C15.829 15.4449 16.454 15.4073 17.0918 15.6631L20.429 17.0022C20.9234 17.1998 21.4326 17.1736 21.9043 16.926L21.9508 16.9033L24.2877 22.8648L22.57 23.6478ZM27.4177 23.074L25.6457 23.7694C25.5229 23.816 25.3809 23.7546 25.332 23.633L22.2826 15.8517C22.2599 15.7938 22.2622 15.7268 22.286 15.6689C22.3122 15.6107 22.3588 15.5642 22.4202 15.5403L24.1922 14.8449C24.3171 14.7948 24.457 14.8562 24.5059 14.9811L27.5553 22.7612C27.6019 22.8852 27.5405 23.0275 27.4177 23.074ZM6.31606 10.8486H7.8402C7.94815 11.2475 8.09044 11.6398 8.27114 12.0125C8.33806 12.1522 8.48937 12.2308 8.64039 12.2046C9.23951 12.1056 9.82146 11.9022 10.3862 11.7044C10.6216 11.6226 10.8434 11.544 11.0581 11.4771C11.1274 11.4568 11.1946 11.4361 11.265 11.4192C11.373 11.3895 11.4605 11.3145 11.5001 11.2123C11.5411 11.1099 11.5298 10.9941 11.4707 10.9007C11.1364 10.3656 10.958 9.7461 10.958 9.11177C10.958 7.2501 12.4743 5.73382 14.336 5.73382C16.1979 5.73382 17.7139 7.2501 17.7139 9.11177C17.7139 9.83921 17.4867 10.5349 17.0537 11.1169C16.9842 11.21 16.9661 11.3293 17.0071 11.4396C17.0444 11.5475 17.1355 11.6316 17.2481 11.6613C17.4195 11.7044 17.5946 11.7634 17.7628 11.8295L19.7269 12.6183C19.7679 12.6352 19.8145 12.6445 19.8555 12.6445C19.9748 12.6445 20.0906 12.5808 20.1555 12.4694C20.4497 11.9601 20.6761 11.4157 20.825 10.8518H22.3492C22.7298 10.8518 23.0414 10.5405 23.0414 10.1596V8.06483C23.0414 7.68424 22.7298 7.3726 22.3492 7.3726H20.825C20.6737 6.80549 20.4465 6.25874 20.1532 5.75186L21.233 4.67204C21.5036 4.40173 21.5036 3.96177 21.233 3.69465L19.7519 2.21358C19.4813 1.94297 19.0416 1.94297 18.7745 2.21358L17.6979 3.29339C17.1887 2.99893 16.6423 2.77284 16.0772 2.62153L16.0783 1.09157C16.0783 0.710973 15.767 0.399628 15.3861 0.399628H13.2914C12.9105 0.399628 12.5991 0.710973 12.5991 1.09157V2.616C12.032 2.76702 11.4853 2.99456 10.9784 3.28757L9.89857 2.20776C9.62796 1.93744 9.188 1.93744 8.92089 2.20776L7.44011 3.68883C7.1695 3.95944 7.1695 4.3994 7.44011 4.66651L8.51294 5.7472C8.21847 6.25641 7.99238 6.80316 7.84136 7.36824H6.31693C5.93634 7.36824 5.6247 7.67958 5.6247 8.06047V10.1552C5.62354 10.537 5.93546 10.8486 6.31606 10.8486ZM7.84136 8.06367C8.15853 8.06367 8.42914 7.85679 8.5109 7.55126C8.64737 7.04205 8.84843 6.55321 9.11322 6.09638C9.27355 5.81995 9.22932 5.48474 9.00294 5.26098L7.92313 4.18437L9.401 2.70358L10.4805 3.7834C10.7046 4.00716 11.0421 4.05139 11.3162 3.89339C11.773 3.6286 12.2619 3.42521 12.7711 3.29107C13.0789 3.2093 13.2835 2.93869 13.2835 2.62153L13.2847 1.09506L15.3774 1.09186V2.616C15.3774 2.93316 15.5843 3.20348 15.8898 3.28554C16.399 3.42171 16.8878 3.62307 17.3447 3.88786C17.6211 4.04819 17.9563 4.00367 18.1801 3.77758L19.2567 2.69776L20.7375 4.17535L19.6576 5.25516C19.4339 5.47921 19.3897 5.81675 19.5477 6.09056C19.8124 6.54739 20.0158 7.03623 20.15 7.54544C20.2317 7.85359 20.5024 8.05814 20.8195 8.05814L22.3437 8.05465L22.3471 10.1474H20.8227C20.5058 10.1474 20.2352 10.3542 20.1535 10.6598C20.0432 11.07 19.8884 11.469 19.6963 11.8464L18.0177 11.1713C17.9677 11.1509 17.9188 11.1338 17.8687 11.1157C18.2176 10.5041 18.4006 9.81535 18.4006 9.09926C18.4006 6.85321 16.573 5.02558 14.3269 5.02558C12.0809 5.02558 10.2533 6.85321 10.2533 9.09926C10.2533 9.71293 10.3897 10.3155 10.6545 10.8655C10.4887 10.9214 10.3225 10.9793 10.1488 11.0407C9.701 11.1975 9.23834 11.361 8.78151 11.46C8.67123 11.201 8.57783 10.9339 8.50508 10.6598C8.42332 10.3519 8.15271 10.1474 7.83583 10.1474L6.3114 10.1506L6.3082 8.05814H7.84136V8.06367Z" fill="#0769D2"/>
<path d="M6.70742 27.9511C6.19821 27.6569 5.93546 27.0988 5.99133 26.5486C5.9311 26.5564 5.86621 26.5599 5.80249 26.5599C5.55487 26.5599 5.30812 26.4985 5.08086 26.3679C4.39096 25.9701 4.15236 25.0823 4.55129 24.3924L4.89435 23.7991L3.93965 23.1386C3.77932 23.4558 3.45081 23.6478 3.10775 23.6478C2.99398 23.6478 2.877 23.6274 2.76672 23.5844L0.994673 22.8887C0.515143 22.7021 0.276251 22.1577 0.465095 21.6782L3.52035 13.8946C3.70658 13.4147 4.25129 13.1761 4.73082 13.3647L6.50287 14.0604C6.73594 14.1535 6.91867 14.3287 7.01761 14.5583C7.11654 14.7879 7.12236 15.0413 7.03245 15.2744L6.97454 15.4199C8.25775 15.7507 9.40711 15.3643 10.6176 14.9537C10.8675 14.8696 11.1268 14.782 11.3826 14.7038C12.2497 14.4332 13.0964 14.5184 13.8966 14.9514L14.5946 15.3299L14.9005 15.1641C15.68 14.7401 16.5302 14.6901 17.3531 15.0221L20.688 16.3609C20.9926 16.4837 21.2926 16.4688 21.5836 16.3178L21.6974 16.2599L21.6395 16.1086C21.5496 15.8755 21.5554 15.6221 21.6543 15.3925C21.753 15.1629 21.936 14.9846 22.1691 14.8946L23.9411 14.1992C24.4186 14.0104 24.963 14.2493 25.1516 14.7288L28.201 22.5101C28.3875 22.9896 28.151 23.5343 27.6691 23.7319L25.8971 24.4276C25.7836 24.4707 25.6698 24.4914 25.556 24.4914C25.181 24.4914 24.8286 24.2673 24.6831 23.8981L24.5376 23.525L22.9079 24.2638C22.9227 24.3162 22.9364 24.3709 22.9454 24.4265C23.0213 24.8391 22.934 25.2584 22.6952 25.6017C22.3928 26.044 21.9008 26.2791 21.4006 26.2791C21.1937 26.2791 20.9845 26.2384 20.7869 26.1543C20.7925 26.4793 20.6993 26.7965 20.5108 27.0703C20.2085 27.5123 19.7161 27.7477 19.2159 27.7477C19.0204 27.7477 18.826 27.7101 18.6398 27.6374C18.6488 27.9581 18.5592 28.2808 18.3637 28.5627C18.1283 28.9061 17.768 29.1377 17.3543 29.2139C17.2588 29.2311 17.1622 29.2401 17.0668 29.2401C16.8337 29.2401 16.6065 29.1877 16.3973 29.0888C16.3859 29.3539 16.3018 29.6096 16.147 29.8311C15.8709 30.23 15.4254 30.445 14.9718 30.445C14.6921 30.445 14.4105 30.363 14.1625 30.1916L12.7338 29.2049L12.6838 29.289C12.4167 29.7516 11.9302 30.0109 11.43 30.0109C11.1824 30.0109 10.9356 29.9495 10.7084 29.8186C10.3775 29.6265 10.1354 29.3152 10.0365 28.9401C10.0365 28.9378 10.0333 28.9322 10.0333 28.9288C9.84678 29.0105 9.64571 29.0536 9.44203 29.0536C9.19441 29.0536 8.94766 28.9925 8.7204 28.8615C8.39189 28.6695 8.15649 28.3672 8.05436 28C7.97259 28.0375 7.8917 28.0707 7.80412 28.0934C7.67929 28.1262 7.55068 28.1434 7.42585 28.1434C7.17561 28.1434 6.92915 28.0797 6.70742 27.9511ZM6.70742 27.9511L6.8823 27.6511M3.02249 22.9375L1.24811 22.2418C1.12532 22.1953 1.06509 22.0498 1.11194 21.9281L4.16138 14.148C4.19862 14.0549 4.29203 13.9935 4.38863 13.9935C4.41802 13.9935 4.44653 13.999 4.47272 14.0104L6.24477 14.7061C6.30268 14.7288 6.35272 14.7753 6.37891 14.8344C6.40481 14.8926 6.40481 14.9595 6.38211 15.0174L3.33355 22.8011C3.28466 22.9262 3.14528 22.9876 3.02249 22.9375ZM5.42858 25.7655C5.07068 25.5587 4.94556 25.096 5.15244 24.7378L5.98231 23.3001C6.08124 23.1284 6.24361 23.0036 6.43914 22.9512C6.63468 22.8988 6.83807 22.925 7.00975 23.024C7.36794 23.2308 7.49277 23.6935 7.28589 24.0514L6.45631 25.4891C6.35738 25.6608 6.19472 25.7859 5.99919 25.8383C5.80481 25.8939 5.60375 25.8677 5.42858 25.7655ZM7.05514 27.3488C6.69724 27.1419 6.57212 26.6792 6.779 26.3213L7.05863 25.8383L7.8885 24.4003L8.46114 23.4081C8.6011 23.1671 8.85454 23.033 9.11264 23.033C9.24096 23.033 9.36841 23.0647 9.48771 23.1351C9.65939 23.234 9.78422 23.3967 9.83659 23.5922C9.88897 23.7878 9.86278 23.9912 9.76385 24.1628L8.08171 27.0761C7.87599 27.4328 7.41304 27.5556 7.05514 27.3488ZM9.6364 28.3355C9.44115 28.3875 9.23747 28.3614 9.06579 28.2627C8.89441 28.1638 8.76929 28.0011 8.71691 27.8056C8.66483 27.6101 8.69072 27.4067 8.78966 27.235L9.78189 25.5153C9.88082 25.3436 10.0435 25.2188 10.239 25.1664C10.4345 25.114 10.6379 25.1402 10.8096 25.2392C10.9813 25.3381 11.1061 25.5005 11.1585 25.696C11.2109 25.8915 11.1847 26.0949 11.0858 26.2666L10.0935 27.9863C9.99459 28.158 9.83426 28.2831 9.6364 28.3355ZM11.0537 29.2174C10.8824 29.1185 10.7572 28.9558 10.7049 28.7606C10.6528 28.565 10.6787 28.3614 10.7776 28.19L11.4291 27.0636C11.5277 26.8919 11.6904 26.7668 11.8859 26.7144C12.0815 26.6623 12.2849 26.6882 12.4565 26.7872C12.8144 26.9941 12.9396 27.4567 12.7327 27.8149L12.0815 28.9413C11.8746 29.3015 11.4116 29.4231 11.0537 29.2174ZM15.5729 29.4321C15.3433 29.7642 14.8865 29.8482 14.5545 29.6187L13.0792 28.6002L13.3327 28.1603C13.5247 27.8262 13.5681 27.4477 13.484 27.0988L15.3867 28.4114C15.547 28.5217 15.655 28.6878 15.689 28.8831C15.7265 29.0774 15.6829 29.2718 15.5729 29.4321ZM22.128 25.2016C21.8516 25.6006 21.3049 25.6995 20.9059 25.4257L16.4776 22.3646C16.3207 22.2567 16.1048 22.2951 15.9945 22.4519C15.8866 22.6087 15.9253 22.8249 16.0821 22.9352L19.7158 25.4458C19.9079 25.5799 20.0362 25.7778 20.0796 26.0108C20.1226 26.2439 20.0737 26.4767 19.9396 26.669C19.6635 27.068 19.1167 27.1666 18.7178 26.8928L14.269 23.8195C14.1122 23.7115 13.8963 23.7502 13.786 23.9071C13.6781 24.0639 13.7168 24.2798 13.8736 24.3901L17.5687 26.942C17.9677 27.2181 18.0666 27.7649 17.7925 28.1638C17.6583 28.3558 17.4584 28.4841 17.2277 28.5275C16.9946 28.5706 16.7616 28.5185 16.5695 28.3875L13.1075 25.9963C12.9506 25.888 12.7347 25.9267 12.6244 26.0836C12.6209 26.0871 12.6186 26.0929 12.6186 26.0949C12.3835 26.0018 12.1301 25.9701 11.8766 26.0076C11.888 25.845 11.8731 25.6791 11.8301 25.5153C11.7311 25.1402 11.4891 24.8289 11.1582 24.6368C10.9251 24.5027 10.6638 24.4355 10.399 24.4448C10.5614 24.1276 10.6001 23.7639 10.507 23.4115C10.4081 23.0388 10.166 22.7248 9.83514 22.5328C9.16909 22.1487 8.32467 22.3556 7.90625 22.9864C7.78346 22.7592 7.5984 22.5613 7.3595 22.4248C6.6696 22.0259 5.78183 22.2645 5.38406 22.9544L5.24439 23.1933L4.20531 22.4772L6.71615 16.0667C7.14709 16.186 7.5597 16.2384 7.96415 16.2384C8.97705 16.2384 9.9169 15.9212 10.8364 15.6096C11.0808 15.5255 11.3366 15.4414 11.5845 15.362C12.2686 15.1493 12.9346 15.2165 13.5634 15.5575L13.8658 15.7234L10.6592 17.4637C9.88489 17.8853 9.59741 18.8572 10.0158 19.6312C10.3033 20.1631 10.8568 20.4666 11.4242 20.4666C11.6796 20.4666 11.9424 20.4052 12.1833 20.271L14.6214 18.9468L21.8993 23.972C22.0914 24.1061 22.2197 24.3063 22.2631 24.537C22.3084 24.7733 22.2584 25.0099 22.1278 25.2019L22.128 25.2016ZM22.57 23.6478C22.4883 23.5582 22.3984 23.4796 22.2962 23.4092L14.8458 18.2592C14.7355 18.183 14.5955 18.1807 14.482 18.2388L11.8539 19.6641C11.4143 19.9027 10.8652 19.7403 10.6266 19.3003C10.3877 18.8604 10.5504 18.3116 10.9903 18.0727L15.2266 15.7711C15.829 15.4449 16.454 15.4073 17.0918 15.6631L20.429 17.0022C20.9234 17.1998 21.4326 17.1736 21.9043 16.926L21.9508 16.9033L24.2877 22.8648L22.57 23.6478ZM27.4177 23.074L25.6457 23.7694C25.5229 23.816 25.3809 23.7546 25.332 23.633L22.2826 15.8517C22.2599 15.7938 22.2622 15.7268 22.286 15.6689C22.3122 15.6107 22.3588 15.5642 22.4202 15.5403L24.1922 14.8449C24.3171 14.7948 24.457 14.8562 24.5059 14.9811L27.5553 22.7612C27.6019 22.8852 27.5405 23.0275 27.4177 23.074ZM6.31606 10.8486H7.8402C7.94815 11.2475 8.09044 11.6398 8.27114 12.0125C8.33806 12.1522 8.48937 12.2308 8.64039 12.2046C9.23951 12.1056 9.82146 11.9022 10.3862 11.7044C10.6216 11.6226 10.8434 11.544 11.0581 11.4771C11.1274 11.4568 11.1946 11.4361 11.265 11.4192C11.373 11.3895 11.4605 11.3145 11.5001 11.2123C11.5411 11.1099 11.5298 10.9941 11.4707 10.9007C11.1364 10.3656 10.958 9.7461 10.958 9.11177C10.958 7.2501 12.4743 5.73382 14.336 5.73382C16.1979 5.73382 17.7139 7.2501 17.7139 9.11177C17.7139 9.83921 17.4867 10.5349 17.0537 11.1169C16.9842 11.21 16.9661 11.3293 17.0071 11.4396C17.0444 11.5475 17.1355 11.6316 17.2481 11.6613C17.4195 11.7044 17.5946 11.7634 17.7628 11.8295L19.7269 12.6183C19.7679 12.6352 19.8145 12.6445 19.8555 12.6445C19.9748 12.6445 20.0906 12.5808 20.1555 12.4694C20.4497 11.9601 20.6761 11.4157 20.825 10.8518H22.3492C22.7298 10.8518 23.0414 10.5405 23.0414 10.1596V8.06483C23.0414 7.68424 22.7298 7.3726 22.3492 7.3726H20.825C20.6737 6.80549 20.4465 6.25874 20.1532 5.75186L21.233 4.67204C21.5036 4.40173 21.5036 3.96177 21.233 3.69465L19.7519 2.21358C19.4813 1.94297 19.0416 1.94297 18.7745 2.21358L17.6979 3.29339C17.1887 2.99893 16.6423 2.77284 16.0772 2.62153L16.0783 1.09157C16.0783 0.710973 15.767 0.399628 15.3861 0.399628H13.2914C12.9105 0.399628 12.5991 0.710973 12.5991 1.09157V2.616C12.032 2.76702 11.4853 2.99456 10.9784 3.28757L9.89857 2.20776C9.62796 1.93744 9.188 1.93744 8.92089 2.20776L7.44011 3.68883C7.1695 3.95944 7.1695 4.3994 7.44011 4.66651L8.51294 5.7472C8.21847 6.25641 7.99238 6.80316 7.84136 7.36824H6.31693C5.93634 7.36824 5.6247 7.67958 5.6247 8.06047V10.1552C5.62354 10.537 5.93546 10.8486 6.31606 10.8486ZM7.84136 8.06367C8.15853 8.06367 8.42914 7.85679 8.5109 7.55126C8.64737 7.04205 8.84843 6.55321 9.11322 6.09638C9.27355 5.81995 9.22932 5.48474 9.00294 5.26098L7.92313 4.18437L9.401 2.70358L10.4805 3.7834C10.7046 4.00716 11.0421 4.05139 11.3162 3.89339C11.773 3.6286 12.2619 3.42521 12.7711 3.29107C13.0789 3.2093 13.2835 2.93869 13.2835 2.62153L13.2847 1.09506L15.3774 1.09186V2.616C15.3774 2.93316 15.5843 3.20348 15.8898 3.28554C16.399 3.42171 16.8878 3.62307 17.3447 3.88786C17.6211 4.04819 17.9563 4.00367 18.1801 3.77758L19.2567 2.69776L20.7375 4.17535L19.6576 5.25516C19.4339 5.47921 19.3897 5.81675 19.5477 6.09056C19.8124 6.54739 20.0158 7.03623 20.15 7.54544C20.2317 7.85359 20.5024 8.05814 20.8195 8.05814L22.3437 8.05465L22.3471 10.1474H20.8227C20.5058 10.1474 20.2352 10.3542 20.1535 10.6598C20.0432 11.07 19.8884 11.469 19.6963 11.8464L18.0177 11.1713C17.9677 11.1509 17.9188 11.1338 17.8687 11.1157C18.2176 10.5041 18.4006 9.81535 18.4006 9.09926C18.4006 6.85321 16.573 5.02558 14.3269 5.02558C12.0809 5.02558 10.2533 6.85321 10.2533 9.09926C10.2533 9.71293 10.3897 10.3155 10.6545 10.8655C10.4887 10.9214 10.3225 10.9793 10.1488 11.0407C9.701 11.1975 9.23834 11.361 8.78151 11.46C8.67123 11.201 8.57783 10.9339 8.50508 10.6598C8.42332 10.3519 8.15271 10.1474 7.83583 10.1474L6.3114 10.1506L6.3082 8.05814H7.84136V8.06367Z" stroke="#0769D2" stroke-width="0.800187" stroke-miterlimit="2" stroke-linejoin="round"/>
</g>
<defs>
<clipPath id="clip0_219_389">
<rect width="29" height="31" fill="white"/>
</clipPath>
</defs>
</svg>
