<svg width="31" height="32" viewBox="0 0 31 32" fill="none" xmlns="http://www.w3.org/2000/svg">
<g clip-path="url(#clip0_83_471)">
<path fill-rule="evenodd" clip-rule="evenodd" d="M0.25 1.91347V11.8848C0.25 12.8026 0.994859 13.5474 1.91263 13.5474H5.49394H11.1092H13.101C14.0188 13.5474 14.7637 12.8026 14.7637 11.8848V1.91347C14.7637 1.47232 14.5907 1.05223 14.2793 0.735219C13.9667 0.423753 13.5433 0.250839 13.101 0.250839H1.91263C1.47148 0.250839 1.05139 0.423753 0.735488 0.735219C0.422913 1.04779 0.25 1.47232 0.25 1.91347ZM1.35842 1.91347C1.35842 1.76605 1.41938 1.62306 1.52357 1.51998C1.62666 1.41579 1.76964 1.35926 1.91263 1.35926H13.101C13.2484 1.35926 13.3914 1.42022 13.4956 1.51998C13.5998 1.62306 13.6552 1.76605 13.6552 1.91347V11.8848C13.6552 12.1918 13.4092 12.439 13.101 12.439H10.555C10.2479 12.439 5.80097 12.439 5.68015 12.439H1.91374C1.6056 12.439 1.35953 12.1918 1.35953 11.8848L1.35842 1.91347Z" fill="#0769D2" stroke="#0769D2" stroke-width="0.498789" stroke-miterlimit="2" stroke-linejoin="round"/>
<path fill-rule="evenodd" clip-rule="evenodd" d="M5.83183 7.27378C4.64028 7.88452 3.82227 9.12706 3.82227 10.5558C3.82227 10.8628 4.06944 11.11 4.37648 11.11H10.6335C10.9405 11.11 11.1877 10.8628 11.1877 10.5558C11.1877 9.12706 10.373 7.88896 9.17815 7.27378C9.58937 6.84926 9.84542 6.27399 9.84542 5.63665C9.84542 4.34645 8.79685 3.29456 7.50222 3.29456C6.21202 3.29456 5.16013 4.34201 5.16013 5.63665C5.16013 6.27399 5.41507 6.84926 5.8274 7.27378H5.83183ZM7.50665 7.97985C8.737 7.97985 9.76672 8.84552 10.0228 10.0016H4.99608C5.24659 8.84996 6.27742 7.98428 7.51109 7.98428L7.50665 7.97985ZM7.50665 6.87143C6.82719 6.87143 6.27298 6.32165 6.27298 5.63665C6.27298 4.95719 6.82719 4.40298 7.50665 4.40298C8.18611 4.40298 8.74143 4.95275 8.74143 5.63665C8.74143 6.31722 8.19055 6.87143 7.50665 6.87143Z" fill="#0769D2" stroke="#0769D2" stroke-width="0.498789" stroke-miterlimit="2" stroke-linejoin="round"/>
<path fill-rule="evenodd" clip-rule="evenodd" d="M18.0898 30.1128C18.1674 30.3677 18.3104 30.606 18.5011 30.8011C18.8125 31.1126 19.237 31.2866 19.6793 31.2866H28.3604C28.8016 31.2866 29.2217 31.1126 29.5376 30.8011C29.8491 30.4896 30.0231 30.0651 30.0231 29.624V12.0367C30.0231 11.7285 29.7759 11.4825 29.4689 11.4825H27.6754V4.90953C27.6754 4.72775 27.5846 4.55483 27.4338 4.45064C27.282 4.34645 27.0869 4.32539 26.9184 4.39411L21.0471 6.74064C20.8387 6.82266 20.7002 7.03104 20.7002 7.25605C20.7002 7.48106 20.8387 7.68501 21.0471 7.77147L26.567 9.97944V11.4825H24.1207C23.6796 11.4825 23.2595 11.6554 22.948 11.9713C22.6366 12.2827 22.4581 12.7073 22.4581 13.1451V15.1713H17.6653C16.7475 15.1713 16.0027 15.9161 16.0027 16.8339V17.9379H11.2099C10.2921 17.9379 9.54724 18.6828 9.54724 19.6005V22.5489H4.75443C4.31217 22.5489 3.88875 22.7218 3.57618 23.0344C3.26471 23.3459 3.0918 23.7704 3.0918 24.2116V29.5586C3.0918 29.8667 3.33787 30.1128 3.64601 30.1128H18.0898ZM28.9147 24.3191C25.6238 25.2845 22.3595 25.2723 19.1251 24.3191V29.6195C19.1251 29.7658 19.1849 29.9088 19.2847 30.013C19.3889 30.1172 19.5319 30.1737 19.6793 30.1737H28.3604C28.5068 30.1737 28.6497 30.1128 28.7495 30.013C28.8537 29.9088 28.9147 29.7658 28.9147 29.6195V24.3146V24.3191ZM28.9147 21.0503V12.5898H24.1207C23.9744 12.5898 23.8359 12.6507 23.7317 12.7549C23.6275 12.8591 23.5665 13.001 23.5665 13.144V15.7244C23.5665 16.0325 23.3205 16.2786 23.0123 16.2786H17.6653C17.3583 16.2786 17.1111 16.5258 17.1111 16.8328V18.4921C17.1111 18.7991 16.865 19.0463 16.5569 19.0463H11.2099C10.9028 19.0463 10.6557 19.2924 10.6557 19.6005V23.1031C10.6557 23.4102 10.4085 23.6573 10.1014 23.6573H4.75443C4.60701 23.6573 4.46402 23.7139 4.35983 23.817C4.25675 23.9211 4.20022 24.0641 4.20022 24.2116V29.0044H18.0122V22.6176C18.0122 22.1765 18.1852 21.752 18.4966 21.4405C18.8092 21.129 19.2326 20.955 19.6749 20.955H21.363V20.1193C21.363 19.6737 21.5403 19.2492 21.8573 18.9333C22.1732 18.6174 22.6011 18.44 23.0434 18.44H24.9831C25.4287 18.44 25.8576 18.6174 26.1691 18.9333C26.485 19.2492 26.6623 19.6737 26.6623 20.1193V20.955H28.3516C28.5422 20.955 28.7284 20.986 28.9058 21.0503H28.9147ZM28.3604 22.0634H19.6793C19.5319 22.0634 19.3889 22.12 19.2847 22.2242C19.1805 22.3283 19.1251 22.4702 19.1251 22.6176V23.1597C22.3595 24.1728 25.6238 24.1938 28.9147 23.1597V22.6176C28.9147 22.4702 28.8537 22.3283 28.7495 22.2242C28.6453 22.12 28.5023 22.0634 28.3604 22.0634ZM25.5628 20.1193V20.955H22.4803V20.1193C22.4803 19.9685 22.5412 19.8211 22.6488 19.7169C22.7574 19.6083 22.9004 19.5484 23.0522 19.5484H24.992C25.1427 19.5484 25.2901 19.6083 25.3943 19.7169C25.5029 19.8255 25.5628 19.9685 25.5628 20.1193ZM26.567 8.78789V5.73197L22.7441 7.25938L26.567 8.78789Z" fill="#0769D2" stroke="#0769D2" stroke-width="0.498789" stroke-miterlimit="2" stroke-linejoin="round"/>
</g>
<defs>
<clipPath id="clip0_83_471">
<rect width="31" height="32" fill="white"/>
</clipPath>
</defs>
</svg>
