<svg width="28" height="32" viewBox="0 0 28 32" fill="none" xmlns="http://www.w3.org/2000/svg">
<g clip-path="url(#clip0_83_491)">
<path fill-rule="evenodd" clip-rule="evenodd" d="M3.35162 21.2187H1.85063C1.5239 21.2216 1.25518 21.4891 1.25048 21.8158V29.9188C1.25518 30.2455 1.5239 30.513 1.85063 30.5159H3.35162C3.50987 30.5147 3.66129 30.4515 3.77304 30.3398C3.88352 30.2272 3.94494 30.0749 3.94366 29.9171V21.8175C3.94494 21.6597 3.88352 21.5074 3.77304 21.3948C3.66129 21.2831 3.50987 21.2199 3.35162 21.2187ZM15.7473 15.1511C15.7486 15.1643 15.7494 15.178 15.7494 15.1916C15.7494 15.4254 15.5566 15.6182 15.3229 15.6182C15.0887 15.6182 14.8964 15.4254 14.8964 15.1916C14.8964 15.178 14.8968 15.1643 14.8981 15.1511V13.8954C13.7396 13.6889 12.8873 12.6725 12.8861 11.4957C12.8848 11.4829 12.8844 11.4701 12.8844 11.4577C12.8844 11.2235 13.0767 11.0312 13.3109 11.0312C13.5451 11.0312 13.7374 11.2235 13.7374 11.4577C13.7374 11.4701 13.737 11.4829 13.7357 11.4957C13.7366 12.365 14.4523 13.0798 15.3216 13.0798C16.1918 13.0798 16.9075 12.3641 16.9075 11.494C16.9075 10.6251 16.1939 9.9098 15.325 9.90809C13.9891 9.90553 12.8908 8.80548 12.8908 7.46956C12.8908 6.29402 13.7413 5.27715 14.8985 5.06942V3.81539C14.8972 3.80217 14.8968 3.78852 14.8968 3.77487C14.8968 3.54113 15.0891 3.34833 15.3233 3.34833C15.5571 3.34833 15.7499 3.54113 15.7499 3.77487C15.7499 3.78852 15.749 3.80217 15.7477 3.81539V5.06942C16.9058 5.27757 17.7572 6.29402 17.7593 7.47042C17.7606 7.48364 17.761 7.49729 17.761 7.51094C17.761 7.74468 17.5686 7.93748 17.3345 7.93748C17.1007 7.93748 16.9079 7.74468 16.9079 7.51094C16.9079 7.49729 16.9088 7.48364 16.91 7.47042C16.9092 6.60113 16.1935 5.88625 15.3242 5.88625C14.454 5.88625 13.7383 6.60198 13.7383 7.47212C13.7383 8.34226 14.454 9.058 15.3242 9.058H15.325C16.6597 9.06184 17.7554 10.161 17.7554 11.4957C17.7554 12.6721 16.9045 13.6885 15.7464 13.8954V15.1511H15.7473ZM15.325 0.399235C15.3225 0.399235 15.3195 0.399235 15.3169 0.399235C10.3307 0.399235 6.22735 4.50255 6.22735 9.4888C6.22735 14.4751 10.3307 18.5784 15.3169 18.5784C20.3032 18.5784 24.4065 14.4751 24.4065 9.4888C24.4065 7.07842 23.4476 4.76444 21.7432 3.06042C20.0434 1.35554 17.7324 0.397102 15.325 0.399235ZM21.143 3.66184C19.6002 2.12032 17.5059 1.25359 15.325 1.25359C10.8088 1.25359 7.0928 4.97004 7.0928 9.48582C7.0928 14.002 10.8088 17.718 15.325 17.718C19.8412 17.718 23.5572 14.002 23.5572 9.48582V9.48454C23.5611 7.30023 22.6918 5.2025 21.1435 3.66141L21.143 3.66184ZM4.9601 21.0864L5.21603 20.8894C5.6575 20.546 6.20219 20.3622 6.76138 20.3673H9.13081C9.6337 20.3613 10.1268 20.5102 10.5422 20.7938L10.9125 21.0378C11.0502 21.1304 11.2008 21.202 11.3595 21.2511C11.519 21.298 11.6849 21.321 11.8513 21.3193H16.7181C17.906 21.3214 18.8836 22.2969 18.8892 23.4849C18.8892 23.8973 18.7693 24.3008 18.5445 24.6463L23.73 20.0397C23.7419 20.032 23.7526 20.0222 23.762 20.0115C24.6479 19.2463 26.0009 19.3265 26.7904 20.1911C26.8032 20.2018 26.8096 20.2129 26.8224 20.2248C27.5855 21.1099 27.5057 22.4603 26.6437 23.2494C26.6322 23.2579 26.6215 23.2673 26.6117 23.2776L20.7421 28.4882C20.513 28.6976 20.2464 28.8623 19.9564 28.9723C19.6663 29.0806 19.3592 29.1357 19.0496 29.134H7.08768C6.93456 29.1323 6.78186 29.1514 6.63385 29.1907C6.48754 29.2316 6.34806 29.2931 6.21882 29.3732L5.39517 29.8629C5.25143 29.9512 5.08636 29.999 4.91745 30.0011C4.87693 30.0015 4.83641 29.9994 4.79631 29.9947C4.77669 30.3517 4.62655 30.6895 4.37489 30.9438C4.10404 31.2163 3.73551 31.3699 3.35119 31.3703H1.85063C1.05641 31.3669 0.403803 30.7143 0.400391 29.9201V21.8175C0.403803 21.0233 1.05641 20.3707 1.85063 20.3673H3.35162C3.95176 20.3707 4.49134 20.7448 4.70418 21.3061C4.78352 21.2263 4.86882 21.1534 4.9601 21.0877V21.0864ZM16.7173 25.6504H11.0852C11.0741 25.6513 11.063 25.6517 11.0524 25.6517C10.8182 25.6517 10.6258 25.4593 10.6258 25.2251C10.6258 24.991 10.8182 24.7986 11.0524 24.7986C11.063 24.7986 11.0741 24.799 11.0852 24.7999H16.7181C16.7262 24.7999 16.7339 24.8003 16.742 24.8003C17.4637 24.8003 18.0579 24.2061 18.0579 23.4844C18.0579 22.7623 17.4637 22.1686 16.742 22.1686C16.7339 22.1686 16.7262 22.1686 16.7181 22.1686H11.8517C11.6035 22.1707 11.3556 22.137 11.1172 22.0675C10.8788 21.9945 10.6527 21.8862 10.4467 21.7463L10.0765 21.5027C9.93868 21.4102 9.78811 21.3385 9.62944 21.2895C9.46735 21.2425 9.29972 21.2199 9.13124 21.2212H6.76181C6.57541 21.2199 6.38986 21.2489 6.21242 21.3065C6.0384 21.3688 5.87461 21.4571 5.72702 21.5688L5.4711 21.7663C5.25868 21.9233 5.08593 22.1276 4.96693 22.3635C4.85475 22.6015 4.79802 22.8621 4.80058 23.1253V29.0427C4.79759 29.0623 4.80228 29.0819 4.81337 29.0981C4.82148 29.1148 4.83513 29.1284 4.85176 29.1365C4.86925 29.1468 4.88887 29.1527 4.90935 29.1532C4.92769 29.1519 4.94517 29.1455 4.96053 29.1357L5.77778 28.646C5.9757 28.5274 6.18854 28.4361 6.41034 28.3739C6.63086 28.3129 6.85863 28.2826 7.08726 28.2839H19.0491C19.4672 28.2915 19.8724 28.1376 20.1795 27.8539L26.061 22.6301C26.5942 22.1472 26.6428 21.3142 26.1698 20.7725C25.6887 20.2359 24.8522 20.1864 24.3114 20.6629L18.832 25.5314C18.7518 25.6086 18.6448 25.6521 18.5335 25.6525L16.7173 25.6504Z" fill="#0769D2" stroke="#0769D2" stroke-width="0.801895" stroke-miterlimit="2" stroke-linejoin="round"/>
</g>
<defs>
<clipPath id="clip0_83_491">
<rect width="28" height="32" fill="white"/>
</clipPath>
</defs>
</svg>
