<?xml version="1.0" encoding="UTF-8" standalone="no"?>
<!DOCTYPE svg PUBLIC "-//W3C//DTD SVG 1.1//EN" "http://www.w3.org/Graphics/SVG/1.1/DTD/svg11.dtd">
<svg width="100%" height="100%" viewBox="0 0 400 474" version="1.1" xmlns="http://www.w3.org/2000/svg" xmlns:xlink="http://www.w3.org/1999/xlink" xml:space="preserve" xmlns:serif="http://www.serif.com/" style="fill-rule:evenodd;clip-rule:evenodd;stroke-linejoin:round;stroke-miterlimit:2;">
    <g transform="matrix(3.31158,2.52874,2.52874,-3.31158,46.9722,348.285)">
        <path d="M18.682,-1.463L47.631,-1.463L4.111,55.53L-24.623,55.248L18.682,-1.463Z" style="fill:white;fill-rule:nonzero;"/>
    </g>
    <g transform="matrix(4.16667,0,0,4.16667,366.728,400.01)">
        <path d="M0,-96.002L-80.003,-96.002C-84.403,-96.002 -88.003,-92.402 -88.003,-88.002L-88.003,-8C-88.003,-3.6 -84.403,0 -80.003,0L-63.994,0L-63.994,-72.006L-63.972,-72.006L-63.972,-72.008L-15.973,-72.008L-15.973,0L0,0C4.4,0 8,-3.6 8,-8L8,-88.002C8,-92.402 4.4,-96.002 0,-96.002" style="fill:white;fill-rule:nonzero;"/>
    </g>
</svg>
