<?xml version="1.0" encoding="UTF-8" standalone="no"?><!DOCTYPE svg PUBLIC "-//W3C//DTD SVG 1.1//EN" "http://www.w3.org/Graphics/SVG/1.1/DTD/svg11.dtd"><svg width="100%" height="100%" viewBox="0 0 2517 750" version="1.1" xmlns="http://www.w3.org/2000/svg" xmlns:xlink="http://www.w3.org/1999/xlink" xml:space="preserve" xmlns:serif="http://www.serif.com/" style="fill-rule:evenodd;clip-rule:evenodd;stroke-linejoin:round;stroke-miterlimit:2;"><g><g><path d="M573.725,2.829l-518.333,0c-28.334,0 -51.667,23.334 -51.667,51.667l0,518.333c0,28.334 23.333,51.667 51.667,51.667l103.75,-0l-0,-466.25l310.833,-0l0,466.25l103.75,-0c28.333,-0 51.667,-23.333 51.667,-51.667l-0,-518.333c-0,-28.75 -23.334,-51.667 -51.667,-51.667" style="fill:#fff;fill-rule:nonzero;"/></g><g><path d="M822.892,110.746l-4.584,-0c-0.416,-9.167 0,-15 -13.333,-15l-25.417,-0l0,94.167c0,11.666 6.25,12.083 15.417,12.083l0,4.583c-7.917,0 -15.417,-0.416 -22.917,-0.416c-7.916,-0 -15.833,-0 -24.583,0.416l0,-4.583c8.75,-0 15.417,-0.417 15.417,-12.083l-0,-94.167l-22.5,-0c-15,-0 -15.834,4.167 -18.75,15l-4.167,-0l1.667,-26.667l3.333,0c1.667,4.584 6.25,4.584 10.417,4.584l76.25,-0c6.25,-0 10.416,-1.667 10.833,-4.584l3.333,0l-0.416,26.667Z" style="fill:#fff;fill-rule:nonzero;"/></g><g><path d="M840.808,102.413c0,-10.834 -2.5,-11.25 -8.75,-13.334l0,-2.5c6.667,-2.083 13.75,-5.416 17.5,-7.083c1.667,-0.833 3.334,-1.667 3.75,-1.667c0.834,0 1.25,0.834 1.25,2.5l0,64.167c1.667,-1.25 12.5,-15 25.834,-15c14.583,-0 22.5,10.833 22.5,25.417l-0,41.666c-0,5.417 3.75,5.417 8.333,5.417l2.917,-0l-0,4.167c-5.834,-0 -11.667,-0.417 -18.334,-0.417c-6.25,-0 -12.083,-0 -18.333,0.417l0,-4.167l2.917,-0c7.916,-0 8.333,-1.667 8.333,-18.333l0,-19.167c0,-12.5 -1.25,-25 -16.667,-25c-7.916,-0 -14.583,5.833 -18.333,9.583l0,47.5c0,5.417 3.75,5.417 8.333,5.417l2.917,-0l0,4.167c-5.833,-0 -11.667,-0.417 -17.917,-0.417c-6.25,-0 -12.083,-0 -18.333,0.417l0,-4.167l2.917,-0c4.583,-0 7.916,-0 7.916,-5.417l0,-94.166l1.25,-0Z" style="fill:#fff;fill-rule:nonzero;"/></g><g><path d="M936.225,159.496c-0.417,1.667 -0.417,4.167 0,9.583c0.833,15.834 11.25,29.167 24.583,29.167c9.167,-0 16.667,-5 22.917,-11.25l2.5,2.5c-7.917,10.417 -17.5,19.167 -31.25,19.167c-26.667,-0 -32.083,-25.834 -32.083,-36.667c-0,-32.917 22.083,-42.917 34.166,-42.917c13.75,0 28.334,8.75 28.334,26.25l-0,2.917l-1.667,0.833l-47.5,0l0,0.417Zm30,-5c4.167,-0 4.583,-2.083 4.583,-4.167c0,-8.75 -5.416,-15.416 -14.583,-15.416c-10.417,-0 -17.5,7.5 -19.167,19.583l29.167,-0Z" style="fill:#fff;fill-rule:nonzero;"/></g><g><path d="M1150.81,207.829l-3.75,0l-87.916,-96.666l-0,62.916c-0,23.334 1.666,27.917 20,27.917l-0,4.167c-7.5,-0 -15,-0.417 -22.5,-0.417c-7.5,-0 -15,-0 -22.5,0.417l-0,-4.167c10.416,-0 17.916,-0 17.916,-21.25l0,-67.917c0,-14.583 -6.25,-19.583 -20.833,-19.583l0,-4.583c5,-0 10.417,0.416 15.417,0.416c4.583,0 9.166,-0.416 13.75,-0.416c7.083,10.416 22.5,25.416 41.666,46.666c14.167,15.834 30,32.5 41.667,45l0,-67.083c0,-15.417 -3.333,-20.417 -20.417,-20.417l0,-4.166c7.917,-0 15.834,0.416 23.334,0.416c6.666,0 12.916,-0.416 19.583,-0.416l0,4.583c-10.417,-0 -15.833,0.833 -15.833,17.5l-0,97.083l0.416,0Z" style="fill:#fff;fill-rule:nonzero;"/></g><g><path d="M1185.81,159.496c-0.416,1.667 -0.416,4.167 0,9.583c0.834,15.834 11.25,29.167 24.584,29.167c9.166,-0 16.666,-5 22.916,-11.25l2.5,2.5c-7.916,10.417 -17.5,19.167 -31.25,19.167c-26.666,-0 -32.083,-25.834 -32.083,-36.667c0,-32.917 22.083,-42.917 34.167,-42.917c13.75,0 28.333,8.75 28.333,26.25l0,2.917l-1.667,0.833l-47.5,0l0,0.417Zm30,-5c4.167,-0 4.584,-2.083 4.584,-4.167c-0,-8.75 -5.417,-15.416 -14.584,-15.416c-10.416,-0 -17.5,7.5 -19.166,19.583l29.166,-0Z" style="fill:#fff;fill-rule:nonzero;"/></g><g><path d="M1254.98,149.079c-5,-12.916 -6.667,-12.916 -12.917,-12.916l0,-4.167c5.417,-0 11.25,0.417 16.667,0.417c5.833,-0 11.667,-0.417 16.667,-0.417l-0,4.167c-5.834,-0 -8.75,0.833 -8.75,3.333c-0,1.25 0.833,3.333 1.25,5l17.5,45.417l14.166,-37.084c0.834,-1.666 0.834,-3.333 0.834,-5.416c-0,-7.917 -5.417,-10.417 -12.084,-10.834l0,-4.166c6.25,-0 12.5,0.416 18.334,0.416c5.416,0 11.25,-0.416 16.666,-0.416l0,4.166c-4.166,0.417 -9.583,0 -9.583,4.167c0,1.667 2.083,7.917 3.75,12.5l14.167,37.083l0.416,0c5,-12.083 9.584,-24.583 14.167,-36.666c0.833,-2.5 2.5,-7.917 2.5,-12.084c0,-5 -6.667,-4.583 -10,-5l0,-4.166c5.417,-0 10.833,0.416 15.833,0.416c4.584,0 8.75,-0.416 13.334,-0.416l-0,4.166c-7.5,0 -10,4.584 -13.334,12.084l-23.75,59.583l-6.25,0.833l-20.833,-52.916l-20,52.083l-5.833,0.833l-22.917,-60Z" style="fill:#fff;fill-rule:nonzero;"/></g><g><path d="M1445.81,141.996l22.084,-0c13.75,-0 13.75,-10.417 14.166,-14.583l3.334,-0c-0.417,3.75 -0.834,12.916 -0.834,18.75c0,5.416 0.834,13.333 0.834,18.75l-3.334,-0c0,-16.25 -5.416,-16.25 -18.333,-16.25l-17.917,-0l0,28.75c0,18.75 0.834,23.333 17.5,23.333l10.417,-0c16.667,-0.833 23.75,-2.917 30.417,-21.25l4.166,0.833c-2.5,8.334 -5.416,17.084 -7.083,25.834c-16.667,-0 -33.75,-0.417 -50.417,-0.417c-12.5,-0 -25,-0 -37.5,0.417l0,-4.584c14.584,0 15.834,-2.5 15.834,-19.166l-0,-74.584c-0,-13.75 -2.5,-14.583 -15.834,-15l0,-4.166c11.25,0.416 22.917,0.416 34.167,0.416c16.25,0 32.083,0 48.333,-0.416l0,25l-3.333,0.833c-2.5,-15.833 -10,-20.417 -27.083,-20.417l-19.584,0l0,47.917Z" style="fill:#fff;fill-rule:nonzero;"/></g><g><path d="M1524.98,151.579c0,-6.25 -1.667,-7.916 -9.583,-11.25l-0,-3.333c7.083,-2.5 14.166,-4.583 22.083,-7.917c0.417,0 0.833,0.417 0.833,1.667l0,10.833c9.584,-7.083 17.917,-12.5 29.167,-12.5c14.167,0 19.583,10.417 19.583,23.75l0,43.334c0,5.416 3.75,5.416 8.334,5.416l2.916,0l0,4.584c-5.833,-0 -11.666,-0.417 -17.916,-0.417c-6.25,-0 -12.084,-0 -18.334,0.417l0,-4.584l2.917,0c4.583,0 7.917,0 7.917,-5.416l-0,-43.75c-0,-9.584 -5.834,-14.167 -15.417,-14.167c-5.417,-0 -14.167,4.583 -19.583,7.917l-0,50c-0,5.416 3.75,5.416 8.333,5.416l2.917,0l-0,4.584c-5.834,-0 -11.667,-0.417 -17.917,-0.417c-6.25,-0 -12.083,-0 -18.333,0.417l-0,-4.584l2.916,0c4.584,0 7.917,0 7.917,-5.416l0,-44.584l1.25,0Z" style="fill:#fff;fill-rule:nonzero;"/></g><g><path d="M1681.23,141.579l-16.667,-0.833c2.917,3.75 4.584,8.333 4.584,12.917c-0,12.5 -10.417,25.833 -31.25,25.833c-2.5,-0 -5.834,-0.417 -9.167,-0.833c-3.333,2.5 -5,4.583 -5,8.75c0,2.5 0.833,7.916 11.667,7.916l23.333,0c14.583,0 22.917,4.584 22.917,17.084c-0,6.666 -8.75,32.5 -44.584,32.5c-21.25,-0 -31.666,-9.584 -31.666,-18.75c-0,-10.834 9.583,-17.5 19.583,-19.584l0,-0.416c-7.083,-2.084 -15,-7.084 -15,-14.584c0,-1.666 0,-3.75 0.833,-5.416c4.584,-2.917 11.667,-6.25 14.167,-8.334c-9.583,-5 -15.833,-11.25 -15.833,-22.5c-0,-14.583 10.833,-25.833 31.666,-25.833c5,-0 10.834,1.25 15,2.5c4.584,1.25 9.584,2.917 16.25,2.917c2.917,-0 5.417,-0 9.584,-0.834l-0,7.5l-0.417,0Zm-35.833,64.584c-10.834,-0 -27.917,-0 -27.917,15.833c0,11.667 10.417,17.083 22.083,17.083c10.417,0 29.584,-4.166 29.584,-19.166c-0,-12.5 -15,-13.75 -23.75,-13.75m-7.5,-72.5c-10.417,-0 -15,10.416 -15,19.166c-0,9.584 4.166,22.5 15.833,22.5c11.25,0 16.25,-9.583 16.25,-19.583c0.417,-10.417 -5,-22.083 -17.083,-22.083" style="fill:#fff;fill-rule:nonzero;"/></g><g><path d="M1690.81,201.996l3.334,-0c4.583,-0 7.916,-0 7.916,-5.417l0,-93.75c0,-10.833 -2.5,-11.25 -8.75,-13.333l0,-2.5c6.667,-2.083 13.75,-5.417 17.5,-7.083c1.667,-0.834 3.334,-1.667 3.75,-1.667c0.834,-0 1.25,0.833 1.25,2.5l0,116.25c0,5.417 3.75,5.417 8.334,5.417l2.916,-0l0,4.583c-5.833,-0 -11.666,-0.417 -17.5,-0.417c-6.25,0 -12.083,0 -18.333,0.417l0,-5l-0.417,-0Z" style="fill:#fff;fill-rule:nonzero;"/></g><g><path d="M1807.89,199.496c-4.584,4.583 -10,9.167 -16.667,9.167c-7.083,-0 -10,-6.25 -10.417,-12.5c-7.916,7.083 -15.416,12.5 -25.833,12.5c-10.833,-0 -18.333,-7.5 -18.333,-16.25c0.833,-13.334 7.5,-15.834 44.166,-28.334l0,-11.25c0,-9.583 -5.416,-14.583 -16.25,-14.583c-7.5,-0 -12.5,4.167 -12.916,11.667c-0,4.583 -5.417,7.083 -9.584,7.083c-2.5,-0 -2.916,-2.083 -2.916,-3.333c-0,-8.75 7.5,-13.334 19.583,-19.167c5.833,-2.917 8.75,-5.417 15,-5.417c7.5,0 20.417,5 20.417,14.167l-0,46.667c-0,7.083 2.5,9.583 6.25,9.583c2.083,-0 4.583,-0.833 6.25,-2.917l1.25,2.917Zm-27.084,-30.833c-8.75,3.333 -30.416,7.083 -30.416,20c-0,6.666 5.416,12.083 12.083,12.083c7.917,-0 12.917,-5 18.333,-9.583l0,-22.5Z" style="fill:#fff;fill-rule:nonzero;"/></g><g><path d="M1827.89,151.579c-0,-6.25 -1.667,-7.916 -9.584,-11.25l0,-3.333c7.084,-2.5 14.167,-4.583 22.084,-7.917c0.416,0 0.833,0.417 0.833,1.667l0,10.833c9.583,-7.083 17.917,-12.5 29.167,-12.5c14.166,0 19.166,10.417 19.166,23.75l0,43.334c0,5.416 3.75,5.416 8.334,5.416l2.916,0l0,4.584c-5.833,-0 -11.666,-0.417 -17.916,-0.417c-6.25,-0 -12.084,-0 -18.334,0.417l0,-4.584l2.917,0c4.583,0 7.917,0 7.917,-5.416l-0,-43.75c-0,-9.584 -5.834,-14.167 -15.417,-14.167c-5.417,-0 -14.167,4.583 -19.583,7.917l-0,50c-0,5.416 3.75,5.416 8.333,5.416l2.917,0l-0,4.584c-5.834,-0 -11.667,-0.417 -17.917,-0.417c-6.25,-0 -12.083,-0 -18.333,0.417l-0,-4.584l2.916,0c4.584,0 7.917,0 7.917,-5.416l0,-44.584l1.667,0Z" style="fill:#fff;fill-rule:nonzero;"/></g><g><path d="M1982.06,191.579c0,7.084 1.667,7.084 8.334,7.084l2.916,-0l0,3.333c-2.5,0.417 -7.083,1.667 -12.083,3.333c-5.417,1.667 -9.583,3.334 -10.417,3.334c-1.666,-0 -1.666,-2.5 -1.666,-4.584l-0,-7.916l-0.417,-0c-6.25,6.25 -15.417,12.5 -25.833,12.5c-20,-0 -31.25,-17.5 -31.25,-36.667c-0,-22.917 18.333,-42.917 41.666,-42.917c5.417,0 10.834,0.834 15.834,2.917l-0,-30c-0,-10.833 -2.5,-11.25 -8.75,-13.333l-0,-2.5c6.666,-2.084 13.75,-5.417 17.5,-7.084c1.666,-0.833 3.333,-1.666 3.75,-1.666c0.833,-0 1.25,0.833 1.25,2.5l-0,111.666l-0.834,0Zm-13.333,-41.666c0,-12.5 -10.417,-15.417 -17.917,-15.417c-12.083,-0 -25,8.75 -25,31.667c0,18.333 11.25,32.5 26.667,32.5c5,-0 16.25,-3.75 16.25,-10l0,-38.75Z" style="fill:#fff;fill-rule:nonzero;"/></g><g><path d="M2144.97,119.079l-4.167,0c-3.333,-19.583 -17.083,-27.5 -36.25,-27.5c-19.166,0 -47.5,12.917 -47.5,53.334c0,34.166 24.167,58.333 50,58.333c16.667,-0 30.417,-11.667 33.75,-29.167l3.75,0.834l-3.75,24.583c-7.083,4.583 -26.25,8.75 -37.083,8.75c-39.583,-0 -64.167,-25.417 -64.167,-63.333c0,-34.584 30.834,-59.167 63.75,-59.167c13.75,-0 26.667,4.583 39.584,8.75l2.083,24.583Z" style="fill:#fff;fill-rule:nonzero;"/></g><g><path d="M2167.06,159.496c-0.416,1.667 -0.416,4.167 0,9.583c0.834,15.834 11.25,29.167 24.584,29.167c9.166,-0 16.666,-5 22.916,-11.25l2.5,2.5c-7.916,10.417 -17.5,19.167 -31.25,19.167c-26.666,-0 -32.083,-25.834 -32.083,-36.667c0,-32.917 22.083,-42.917 34.167,-42.917c13.75,0 28.333,8.75 28.333,26.25l0,2.917l-1.667,0.833l-47.5,0l0,0.417Zm30,-5c4.167,-0 4.584,-2.083 4.584,-4.167c-0,-8.75 -5.417,-15.416 -14.584,-15.416c-10.416,-0 -17.5,7.5 -19.166,19.583l29.166,-0Z" style="fill:#fff;fill-rule:nonzero;"/></g><g><path d="M2236.64,151.579c-0,-6.25 -1.667,-7.916 -9.584,-11.25l0,-3.333c7.084,-2.5 14.167,-4.583 22.084,-7.917c0.416,0 0.833,0.417 0.833,1.667l0,10.833c9.583,-7.083 17.917,-12.5 29.167,-12.5c14.166,0 19.583,10.417 19.583,23.75l0,43.334c0,5.416 3.75,5.416 8.333,5.416l2.917,0l0,4.584c-5.833,-0 -11.667,-0.417 -17.917,-0.417c-6.25,-0 -12.083,-0 -18.333,0.417l0,-4.584l2.917,0c4.583,0 7.916,0 7.916,-5.416l0,-43.75c0,-9.584 -5.833,-14.167 -15.416,-14.167c-5.417,-0 -14.167,4.583 -19.584,7.917l0,50c0,5.416 3.75,5.416 8.334,5.416l2.916,0l0,4.584c-5.833,-0 -11.666,-0.417 -17.916,-0.417c-6.25,-0 -12.084,-0 -18.334,0.417l0,-4.584l2.917,0c4.583,0 7.917,0 7.917,-5.416l-0,-44.584l1.25,0Z" style="fill:#fff;fill-rule:nonzero;"/></g><g><path d="M2342.47,185.329c0,11.25 6.25,14.167 10.417,14.167c4.583,-0 7.916,-1.667 11.666,-5l2.5,2.5c-5.833,6.25 -13.333,11.25 -22.5,11.25c-10.833,-0 -15.833,-5.833 -15.833,-15.833l0,-52.084l-11.25,0l0,-2.5c8.75,-6.666 14.167,-10 22.5,-23.75l2.083,0l0,17.084l25,-0l0,9.166l-25,0l0,45l0.417,0Z" style="fill:#fff;fill-rule:nonzero;"/></g><g><path d="M2388.31,159.496c-0.416,1.667 -0.416,4.167 0,9.583c0.834,15.834 11.25,29.167 24.584,29.167c9.166,-0 16.666,-5 22.916,-11.25l2.5,2.5c-7.916,10.417 -17.5,19.167 -31.25,19.167c-26.666,-0 -32.083,-25.834 -32.083,-36.667c0,-32.917 22.083,-42.917 34.167,-42.917c13.75,0 28.333,8.75 28.333,26.25l0,2.917l-1.667,0.833l-47.5,0l0,0.417Zm30,-5c4.167,-0 4.584,-2.083 4.584,-4.167c-0,-8.75 -5.417,-15.416 -14.584,-15.416c-10.416,-0 -17.5,7.5 -19.166,19.583l29.166,-0Z" style="fill:#fff;fill-rule:nonzero;"/></g><g><path d="M2446.22,201.996l4.583,-0c4.584,-0 7.917,-0 7.917,-5.417l0,-47.5c0,-5.416 -6.25,-6.25 -8.75,-7.5l0,-2.916c12.083,-5 19.167,-9.584 20.417,-9.584c0.833,0 1.666,0.417 1.666,2.084l0,15l0.417,-0c4.167,-6.667 11.25,-17.5 21.667,-17.5c4.166,-0 9.583,2.916 9.583,8.75c0,4.583 -3.333,8.75 -7.917,8.75c-5.416,-0 -5.416,-4.167 -11.25,-4.167c-2.916,-0 -12.083,3.75 -12.083,14.167l0,39.583c0,5.417 3.333,5.417 7.917,5.417l9.583,-0l0,4.583c-9.167,-0 -16.25,-0.417 -23.75,-0.417c-7.083,0 -14.167,0 -20,0.417l0,-3.75Z" style="fill:#fff;fill-rule:nonzero;"/></g><g><path d="M787.058,335.746l0,9.167l-21.25,-0l0,57.083c0,4.167 4.167,4.167 7.917,4.167l7.5,-0l0,4.583c-7.083,-0 -14.167,-0.417 -21.667,-0.417c-7.083,0 -14.166,0 -20.833,0.417l0,-4.583l6.25,-0c6.25,-0 7.083,-2.917 7.083,-5.417l0,-55.417l-11.666,0l-0,-2.916c3.75,-2.5 11.666,-5 11.666,-10.417c0,-10.833 2.917,-27.5 13.334,-38.333c9.166,-9.584 17.916,-11.667 20.416,-11.667c2.917,-0 7.5,0.833 7.5,7.083c0,3.75 -1.666,6.667 -5.833,6.667c-5,-0 -5,-2.5 -10.833,-2.5c-10.417,-0 -11.25,12.083 -11.25,19.167l-0,24.166l21.666,0l0,-0.833Z" style="fill:#fff;fill-rule:nonzero;"/></g><g><path d="M835.392,333.246c23.333,-0 40.833,15.417 40.833,39.583c0,21.667 -17.083,40 -38.75,40c-22.5,0 -40.833,-15.416 -40.833,-39.583c-0,-21.667 15.833,-40 38.75,-40m1.666,75c16.667,-0 23.334,-19.583 23.334,-34.167c-0,-13.75 -7.5,-36.666 -25.417,-36.666c-16.667,-0 -23.333,19.583 -23.333,34.166c0.416,13.75 7.916,36.667 25.416,36.667" style="fill:#fff;fill-rule:nonzero;"/></g><g><path d="M885.392,405.746l4.583,-0c4.583,-0 7.917,-0 7.917,-5.417l-0,-47.5c-0,-5.416 -6.25,-6.25 -8.75,-7.5l-0,-2.5c12.083,-5.416 19.166,-9.583 20.416,-9.583c0.834,-0 1.667,0.417 1.667,2.083l0,15l0.417,0c4.166,-6.666 11.25,-17.5 21.666,-17.5c4.167,0 9.584,2.917 9.584,8.75c-0,4.584 -3.334,8.75 -7.917,8.75c-5.417,0 -5.417,-4.166 -11.25,-4.166c-2.917,-0 -12.083,3.75 -12.083,14.166l-0,39.584c-0,5.416 3.333,5.416 7.916,5.416l9.584,0l-0,4.584c-9.167,-0 -16.25,-0.417 -23.75,-0.417c-7.084,-0 -14.167,-0 -20,0.417l-0,-4.167Z" style="fill:#fff;fill-rule:nonzero;"/></g><g><path d="M1094.14,323.246l-4.167,-0c-3.333,-19.583 -17.083,-27.5 -35.833,-27.5c-19.584,-0 -47.5,12.917 -47.5,53.333c-0,34.167 24.166,58.334 50,58.334c16.666,-0 30.416,-11.667 33.75,-29.167l3.75,0.833l-3.75,24.584c-7.084,4.583 -26.25,8.75 -37.084,8.75c-39.583,-0 -64.166,-25.417 -64.166,-63.334c-0,-34.583 30.833,-59.166 63.75,-59.166c13.75,-0 26.666,4.583 39.583,8.75l1.667,24.583Z" style="fill:#fff;fill-rule:nonzero;"/></g><g><path d="M1113.73,306.579c0,-10.833 -2.5,-11.25 -8.75,-13.333l0,-2.5c6.667,-2.083 13.75,-5 17.5,-7.083c1.667,-0.834 3.333,-1.667 3.75,-1.667c0.833,-0 1.25,0.833 1.25,2.5l0,64.167c1.667,-1.25 12.5,-15 25.833,-15c14.584,-0 22.5,10.833 22.5,25.416l0,41.667c0,5.417 3.75,5.417 8.334,5.417l2.916,-0l0,4.166c-5.833,0 -11.666,-0.416 -18.333,-0.416c-6.25,-0 -12.083,-0 -18.333,0.416l-0,-4.166l2.916,-0c7.917,-0 8.334,-1.667 8.334,-18.334l-0,-19.166c-0,-12.5 -1.25,-25 -16.667,-25c-7.917,-0 -14.583,5.833 -18.333,9.583l-0,47.5c-0,5.417 3.75,5.417 8.333,5.417l2.917,-0l-0,4.166c-5.834,0 -11.667,-0.416 -17.917,-0.416c-6.25,-0 -12.083,-0 -18.333,0.416l-0,-4.166l2.916,-0c4.584,-0 7.917,-0 7.917,-5.417l0,-94.167l1.25,0Z" style="fill:#fff;fill-rule:nonzero;"/></g><g><path d="M1197.06,405.746l3.334,-0c4.583,-0 7.916,-0 7.916,-5.417l0,-45.833c0,-7.5 -2.5,-8.333 -8.75,-11.667l0,-2.5c7.917,-2.5 17.5,-5.416 17.917,-6.25c1.25,-0.833 2.083,-0.833 2.917,-0.833c0.833,-0 1.25,0.833 1.25,2.5l-0,64.583c-0,5.417 3.75,5.417 8.333,5.417l2.917,-0l-0,4.583c-5.834,0 -11.667,-0.416 -17.5,-0.416c-6.25,-0 -12.084,-0 -18.334,0.416l0,-4.583Zm17.917,-98.333c-4.583,-0 -8.333,-4.167 -8.333,-8.334c-0,-4.166 4.166,-7.916 8.333,-7.916c4.167,-0 8.333,3.333 8.333,7.916c0,4.167 -3.75,8.334 -8.333,8.334" style="fill:#fff;fill-rule:nonzero;"/></g><g><path d="M1244.14,405.746l3.333,-0c4.583,-0 7.917,-0 7.917,-5.417l-0,-93.75c-0,-10.833 -2.5,-11.25 -8.75,-13.333l-0,-2.5c6.666,-2.083 13.75,-5.417 17.5,-7.083c1.666,-0.834 3.333,-1.667 3.75,-1.667c0.833,-0 1.25,0.833 1.25,2.5l-0,116.25c-0,5.417 3.75,5.417 8.333,5.417l2.917,-0l-0,4.583c-5.834,-0 -11.667,-0.417 -17.5,-0.417c-6.25,0 -12.084,0 -18.334,0.417l0,-5l-0.416,-0Z" style="fill:#fff;fill-rule:nonzero;"/></g><g><path d="M1359.98,395.746c0,7.083 1.667,7.083 8.333,7.083l2.917,0l0,3.334c-2.5,0.416 -7.083,1.666 -12.083,3.333c-5,1.667 -9.584,3.333 -10.417,3.333c-1.667,0 -1.667,-2.5 -1.667,-4.583l0,-7.917l-0.416,0c-6.25,6.25 -15.417,12.5 -25.834,12.5c-20,0 -31.25,-17.5 -31.25,-36.666c0,-22.917 18.334,-42.917 41.667,-42.917c5.417,-0 10.833,0.833 15.833,2.917l0,-30c0,-10.834 -2.5,-11.25 -8.75,-13.334l0,-2.5c6.667,-2.083 13.75,-5.416 17.5,-7.083c1.667,-0.833 3.334,-1.667 3.75,-1.667c0.834,0 1.25,0.834 1.25,2.5l0,111.667l-0.833,-0Zm-13.333,-41.667c-0,-12.5 -10.417,-15.416 -17.917,-15.416c-12.083,-0 -25,8.75 -25,31.666c0,18.334 11.25,32.5 26.667,32.5c5,0 16.25,-3.75 16.25,-10l-0,-38.75Z" style="fill:#fff;fill-rule:nonzero;"/></g><g><path d="M1380.39,405.746l4.583,-0c4.583,-0 7.917,-0 7.917,-5.417l-0,-47.5c-0,-5.416 -6.25,-6.25 -8.75,-7.5l-0,-2.5c12.083,-5.416 19.166,-9.583 20.416,-9.583c0.834,-0 1.667,0.417 1.667,2.083l0,15l0.417,0c4.166,-6.666 11.25,-17.5 21.666,-17.5c4.167,0 9.584,2.917 9.584,8.75c-0,4.584 -3.334,8.75 -7.917,8.75c-5.417,0 -5.417,-4.166 -11.25,-4.166c-2.917,-0 -12.083,3.75 -12.083,14.166l-0,39.584c-0,5.416 3.333,5.416 7.916,5.416l9.584,0l-0,4.584c-9.167,-0 -16.25,-0.417 -23.75,-0.417c-7.084,-0 -14.167,-0 -20,0.417l-0,-4.167Z" style="fill:#fff;fill-rule:nonzero;"/></g><g><path d="M1457.06,363.663c-0.416,1.666 -0.416,4.166 0,9.583c0.834,15.833 11.25,29.167 24.584,29.167c9.166,-0 16.666,-5 22.916,-11.25l2.5,2.5c-7.916,10.416 -17.5,19.166 -31.25,19.166c-26.666,0 -32.083,-25.833 -32.083,-36.666c0,-32.917 22.083,-42.917 34.167,-42.917c13.75,-0 28.333,8.75 28.333,26.25l0,2.917l-1.667,0.833l-47.5,-0l0,0.417Zm29.584,-5.417c4.166,-0 4.583,-2.083 4.583,-4.167c0,-8.75 -5.417,-15.416 -14.583,-15.416c-10.417,-0 -17.5,7.5 -19.167,19.583l29.167,-0Z" style="fill:#fff;fill-rule:nonzero;"/></g><g><path d="M1528.31,355.746c0,-6.25 -1.666,-7.917 -9.583,-11.25l0,-3.333c7.083,-2.5 14.167,-4.584 22.083,-7.917c0.417,-0 0.834,0.417 0.834,1.667l-0,10.833c9.583,-7.083 17.916,-12.5 29.166,-12.5c14.167,-0 19.167,10.417 19.167,23.75l0,43.333c0,5.417 3.75,5.417 8.333,5.417l2.917,-0l0,4.583c-5.833,0 -11.667,-0.416 -17.917,-0.416c-6.25,-0 -12.083,-0 -18.333,0.416l0,-4.583l2.917,-0c4.583,-0 7.916,-0 7.916,-5.417l0,-43.75c0,-9.583 -5.833,-14.166 -15.416,-14.166c-5.417,-0 -14.167,4.583 -19.584,7.916l0,50c0,5.417 3.75,5.417 8.334,5.417l2.916,-0l0,4.583c-5.833,0 -11.666,-0.416 -17.916,-0.416c-6.25,-0 -12.084,-0 -18.334,0.416l0,-4.583l2.917,-0c4.583,-0 7.917,-0 7.917,-5.417l-0,-44.583l1.666,-0Z" style="fill:#fff;fill-rule:nonzero;"/></g><g><path d="M1603.73,324.079c0,-12.5 10,-22.5 22.5,-22.5c12.5,0 22.5,10 22.5,22.5c0,12.084 -10,22.084 -22.5,22.084c-12.5,-0 -22.5,-10 -22.5,-22.084m41.25,0c0,-10.416 -8.333,-19.583 -18.75,-19.583c-10.417,-0 -18.75,9.167 -18.75,19.583c0,10 8.333,19.167 18.75,19.167c10.417,-0 18.75,-9.167 18.75,-19.167m-18.75,11.667l-10.417,-0l0,-1.25c2.917,-0.417 3.334,-0.417 3.334,-2.083l-0,-17.084c-0,-2.916 -0,-2.916 -3.334,-3.333l0,-0.833l11.25,-0c3.75,-0 7.5,1.666 7.5,5.833c0,3.333 -2.083,5.833 -5.416,6.667l3.75,5c1.666,2.5 3.75,4.583 5,5.416l-0,0.417l-4.167,-0c-2.083,-0 -3.75,-4.583 -7.917,-10.833l-3.333,-0l0,7.916c0,1.667 0.417,1.667 3.333,2.084l0,2.083l0.417,-0Zm-3.75,-12.083l3.333,-0c2.917,-0 4.167,-2.5 4.167,-5.834c0,-3.75 -2.083,-5 -4.583,-5l-2.917,0l0,10.834Z" style="fill:#fff;fill-rule:nonzero;"/></g><g><path d="M800.392,621.579l-6.25,-31.25l-37.5,0l-15.834,30.417l-9.583,-0l50,-94.583l8.333,-0l20,93.333l-9.166,2.083Zm-17.084,-83.333l-22.916,44.167l32.083,-0l-9.167,-44.167Z" style="fill:#fff;fill-rule:nonzero;"/></g><g><path d="M868.725,602.413l-0.417,17.916l-7.5,0l-0.416,-14.166c-8.334,9.166 -16.25,15.833 -24.167,15.833c-9.583,-0 -15,-5 -15,-14.167c0,-1.25 0,-3.75 0.417,-5.416l7.5,-46.25l8.75,-0l-7.084,45c-0.416,1.25 -0.416,3.333 -0.416,4.166c-0,5.417 2.5,8.75 7.916,8.75c5.834,0 13.334,-6.25 22.917,-17.5l6.25,-40.416l8.75,-0l-7.5,46.25Z" style="fill:#fff;fill-rule:nonzero;"/></g><g><path d="M906.642,563.663l-5.834,38.333c0,0.833 -0.416,4.583 -0.416,5.833c-0,4.167 2.5,6.667 7.5,6.667c2.5,-0 4.583,-0.417 6.666,-0.833l0,7.5c-2.083,0.416 -5.416,0.833 -8.75,0.833c-8.75,-0 -14.166,-3.75 -14.166,-12.5c-0,-1.667 0.416,-5.417 0.833,-7.083l6.25,-38.75l-9.583,-0l1.25,-7.5l9.583,-0l3.333,-22.5l9.167,-1.667l-3.75,23.75l15,-0l0,7.5l-17.083,-0l-0,0.417Z" style="fill:#fff;fill-rule:nonzero;"/></g><g><path d="M937.892,620.746l-8.75,-0l10.416,-64.167l8.75,0l-10.416,64.167Zm9.583,-80c-3.333,-0 -6.25,-2.917 -6.25,-6.25c0,-3.75 2.917,-6.667 6.25,-6.667c3.333,0 6.25,2.917 6.25,6.667c0,3.333 -2.917,6.25 -6.25,6.25" style="fill:#fff;fill-rule:nonzero;"/></g><g><path d="M999.142,568.246c-5,-3.333 -10.417,-5.833 -16.667,-5.833c-7.083,-0 -11.667,4.166 -11.667,9.583c0,4.583 2.917,7.083 10.417,10.833c12.5,6.25 17.083,10.417 17.083,19.584c0,12.916 -9.583,19.583 -22.083,19.583c-8.75,-0 -16.667,-3.333 -21.667,-7.083l2.5,-8.334c5.417,4.167 12.5,7.5 20.417,7.5c7.083,0 12.5,-4.166 12.5,-10.833c0,-5.417 -2.917,-7.917 -11.25,-12.083c-10.833,-5.417 -16.25,-9.584 -16.25,-17.917c0,-11.25 8.75,-18.333 20.833,-18.333c7.084,-0 12.917,2.083 17.917,4.583l-2.083,8.75Z" style="fill:#fff;fill-rule:nonzero;"/></g><g><path d="M1056.64,620.746l-8.75,-0l7.083,-45c0.417,-1.667 0.417,-3.333 0.417,-4.167c-0,-5.416 -2.084,-8.75 -7.5,-8.75c-5.417,0 -13.334,6.25 -22.917,17.5l-6.25,40.417l-8.75,-0l7.5,-46.25l0.417,-17.917l7.5,0l0.416,14.167c8.334,-9.167 16.667,-15.833 24.167,-15.833c9.583,-0 14.167,5 14.167,14.166l-0,0.417c7.916,-8.75 15.833,-14.583 23.333,-14.583c9.583,-0 14.583,5 14.583,14.166c0,1.667 0,3.334 -0.416,5.417l-7.5,46.25l-8.75,-0l7.083,-45c0.417,-1.667 0.417,-3.333 0.417,-4.167c-0,-5.416 -2.084,-8.75 -7.917,-8.75c-5.417,0 -12.917,6.25 -22.5,17.5l-5.833,40.417Z" style="fill:#fff;fill-rule:nonzero;"/></g><g><path d="M1203.73,534.913l-36.667,-0l-5.416,32.5l28.75,-0l-0,8.333l-30,-0l-5.834,36.667l37.917,-0l-1.25,8.333l-47.083,-0l15,-94.167l45.833,0l-1.25,8.334Z" style="fill:#fff;fill-rule:nonzero;"/></g><g><path d="M1252.06,602.413l-0.416,17.916l-7.917,0l-0.417,-11.666c-7.083,7.916 -13.75,13.333 -21.666,13.333c-11.25,-0 -18.334,-8.75 -18.334,-23.75c0,-25.417 15.834,-42.917 35,-42.917c4.584,0 8.75,1.25 12.084,2.084l5,-32.917l9.166,-1.667l-12.5,79.584Zm-14.166,-39.584c-13.334,0 -25.417,12.917 -25.417,34.584c0,10.416 4.167,17.083 11.25,17.083c5.833,-0 11.667,-4.583 20.417,-13.75l5.833,-35.417c-4.583,-1.666 -7.917,-2.5 -12.083,-2.5" style="fill:#fff;fill-rule:nonzero;"/></g><g><path d="M1317.89,602.413l-0.417,17.916l-7.5,0l-0.417,-14.166c-8.333,9.166 -16.25,15.833 -24.166,15.833c-9.584,-0 -15,-5 -15,-14.167c-0,-1.25 -0,-3.75 0.416,-5.416l7.5,-46.25l8.75,-0l-7.083,45c-0.417,1.25 -0.417,3.333 -0.417,4.166c0,5.417 2.5,8.75 7.917,8.75c5.833,0 13.333,-6.25 22.917,-17.5l6.25,-40.416l8.75,-0l-7.5,46.25Z" style="fill:#fff;fill-rule:nonzero;"/></g><g><path d="M1381.23,569.079c-5,-3.75 -9.583,-6.25 -15.833,-6.25c-12.084,0 -22.5,15 -22.5,31.667c-0,12.917 6.666,20 16.666,20c5.417,-0 10,-2.083 16.25,-6.25l0,8.333c-5,3.334 -10.833,5.417 -17.083,5.417c-14.583,-0 -24.583,-10 -24.583,-27.083c-0,-21.667 13.75,-40 31.666,-40c7.5,-0 12.917,2.5 17.5,5.416l-2.083,8.75Z" style="fill:#fff;fill-rule:nonzero;"/></g><g><path d="M1407.06,621.996c-10.416,-0 -16.666,-7.917 -16.666,-21.667c-0,-26.25 16.666,-45 36.25,-45c6.666,0 12.5,1.667 18.75,4.167l-7.084,42.5l-0.416,18.75l-7.5,-0l-0.417,-13.333c-8.333,8.75 -15.417,14.583 -22.917,14.583m28.75,-57.5c-3.333,-1.25 -5.833,-2.083 -10,-2.083c-13.75,-0 -26.666,15 -26.666,36.666c-0,9.584 3.333,15 9.583,15c5.833,0 11.667,-5 22.083,-15.833l5,-33.75Z" style="fill:#fff;fill-rule:nonzero;"/></g><g><path d="M1475.81,563.663l-5.833,38.333c0,0.833 -0.417,4.583 -0.417,5.833c0,4.167 2.5,6.667 7.5,6.667c2.5,-0 4.584,-0.417 6.667,-0.833l0,7.5c-2.083,0.416 -5.417,0.833 -8.75,0.833c-8.75,-0 -14.167,-3.75 -14.167,-12.5c0,-1.667 0.417,-5.417 0.834,-7.083l6.25,-38.75l-9.584,-0l1.25,-7.5l9.584,-0l3.333,-22.5l9.167,-1.667l-3.75,23.75l15,-0l-0,7.5l-17.084,-0l0,0.417Z" style="fill:#fff;fill-rule:nonzero;"/></g><g><path d="M1507.48,620.746l-8.75,-0l10.417,-64.167l8.75,0l-10.417,64.167Zm9.583,-80c-3.333,-0 -6.25,-2.917 -6.25,-6.25c0,-3.75 2.917,-6.667 6.25,-6.667c3.334,0 6.25,2.917 6.25,6.667c0,3.333 -2.916,6.25 -6.25,6.25" style="fill:#fff;fill-rule:nonzero;"/></g><g><path d="M1551.64,621.996c-14.167,-0 -22.917,-10 -22.917,-27.5c0,-20.833 12.917,-39.583 30.833,-39.583c14.167,-0 22.917,10 22.917,27.5c0.417,20.833 -12.5,39.583 -30.833,39.583m7.5,-60c-12.917,-0 -21.667,16.25 -21.667,32.083c0,14.584 6.667,20.417 15,20.417c12.917,-0 21.25,-16.25 21.25,-32.083c0,-14.584 -6.667,-20.417 -14.583,-20.417" style="fill:#fff;fill-rule:nonzero;"/></g><g><path d="M1647.48,574.079l-7.5,46.25l-8.75,0l7.083,-45c0.417,-1.666 0.417,-3.333 0.417,-4.166c0,-5.417 -2.5,-8.75 -7.917,-8.75c-5.833,-0 -13.333,6.25 -22.916,17.5l-6.25,40.416l-8.75,0l7.5,-46.25l0.416,-17.916l7.5,-0l0.417,14.166c8.333,-9.166 16.25,-15.833 24.167,-15.833c9.583,-0 15,5 15,14.167c-0,1.666 -0,4.166 -0.417,5.416" style="fill:#fff;fill-rule:nonzero;"/></g><g><path d="M1704.98,621.996c-10,-0 -16.667,-7.917 -16.667,-21.667c0,-26.25 16.667,-45 36.25,-45c6.667,0 12.5,1.667 18.75,4.167l-7.083,42.5l-0.417,18.75l-7.5,-0l-0.416,-13.333c-7.917,8.75 -15,14.583 -22.917,14.583m29.167,-57.5c-3.334,-1.25 -5.834,-2.083 -10,-2.083c-13.75,-0 -26.667,15 -26.667,36.666c0,9.584 3.333,15 9.583,15c5.834,0 11.667,-5 22.084,-15.833l5,-33.75Z" style="fill:#fff;fill-rule:nonzero;"/></g><g><path d="M1808.31,574.079l-7.5,46.25l-8.75,0l7.084,-45c0.416,-1.666 0.416,-3.333 0.416,-4.166c0,-5.417 -2.5,-8.75 -7.916,-8.75c-5.834,-0 -13.334,6.25 -22.917,17.5l-6.25,40.416l-8.75,0l7.5,-46.25l0.417,-17.916l7.5,-0l0.416,14.166c8.334,-9.166 16.25,-15.833 24.167,-15.833c9.583,-0 15,5 15,14.167c0,1.666 0,4.166 -0.417,5.416" style="fill:#fff;fill-rule:nonzero;"/></g><g><path d="M1868.73,602.413l-0.417,17.916l-7.916,0l-0.417,-11.666c-7.083,7.916 -13.75,13.333 -21.667,13.333c-11.25,-0 -18.333,-8.75 -18.333,-23.75c0,-25.417 15.833,-42.917 35,-42.917c4.583,0 8.75,1.25 12.083,2.084l5,-32.917l9.167,-1.667l-12.5,79.584Zm-14.167,-39.584c-13.333,0 -25.416,12.917 -25.416,34.584c-0,10.416 4.166,17.083 11.25,17.083c5.833,-0 11.666,-4.583 20.416,-13.75l5.834,-35.417c-4.584,-1.666 -7.917,-2.5 -12.084,-2.5" style="fill:#fff;fill-rule:nonzero;"/></g><g><path d="M1953.31,577.829l22.917,41.667l-9.583,2.083l-23.75,-42.5l-10.417,0l-6.667,41.667l-9.166,-0l15,-93.75l17.916,-0c17.917,-0 29.167,7.5 29.167,22.917c0,14.583 -10,25.416 -25.417,27.916m-3.75,-42.916l-10,-0l-5.833,36.666l10.833,0c15.834,0 25,-8.333 25,-20.833c0,-10.417 -7.083,-15.833 -20,-15.833" style="fill:#fff;fill-rule:nonzero;"/></g><g><path d="M1994.14,594.496c-0,12.5 5.833,20 16.25,20c7.083,-0 12.916,-2.917 20.416,-8.333l0,8.333c-6.666,4.583 -13.333,7.5 -21.666,7.5c-14.584,-0 -23.75,-10 -23.75,-26.667c-0,-24.166 15,-40.416 30,-40.416c12.916,-0 20.416,8.75 20.416,23.75c0,3.333 -0.416,6.666 -0.833,10l-40,-0c-0.833,2.083 -0.833,3.75 -0.833,5.833m32.5,-12.5c0.833,-12.5 -2.917,-20 -11.667,-20c-7.917,-0 -15.833,7.5 -19.167,20l30.834,-0Z" style="fill:#fff;fill-rule:nonzero;"/></g><g><path d="M2085.81,568.246c-5,-3.333 -10.416,-5.833 -16.666,-5.833c-7.084,-0 -11.667,4.166 -11.667,9.583c0,4.583 2.917,7.083 10.417,10.833c12.5,6.25 17.083,10.417 17.083,19.584c0,12.916 -9.583,19.583 -22.083,19.583c-8.75,-0 -16.25,-3.333 -21.667,-7.083l2.5,-8.334c5.417,4.167 12.5,7.5 20.417,7.5c7.083,0 12.5,-4.166 12.5,-10.833c-0,-5.417 -2.917,-7.917 -11.25,-12.083c-10.834,-5.417 -16.25,-9.584 -16.25,-17.917c-0,-11.25 8.75,-18.333 20.833,-18.333c7.083,-0 12.917,2.083 17.917,4.583l-2.084,8.75Z" style="fill:#fff;fill-rule:nonzero;"/></g><g><path d="M2106.22,594.496c0,12.5 5.833,20 16.25,20c7.083,-0 12.917,-2.917 20.417,-8.333l-0,8.333c-6.667,4.583 -13.334,7.5 -21.667,7.5c-14.583,-0 -23.75,-10 -23.75,-26.667c0,-24.166 15,-40.416 30,-40.416c12.917,-0 20.417,8.75 20.417,23.75c-0,3.333 -0.417,6.666 -0.834,10l-40,-0c-0.833,2.083 -0.833,3.75 -0.833,5.833m32.5,-12.5c0.833,-12.5 -2.917,-20 -11.667,-20c-7.916,-0 -15.833,7.5 -19.166,20l30.833,-0Z" style="fill:#fff;fill-rule:nonzero;"/></g><g><path d="M2174.56,621.996c-10,-0 -16.666,-7.917 -16.666,-21.667c-0,-26.25 16.666,-45 36.25,-45c6.666,0 12.5,1.667 18.75,4.167l-7.084,42.5l-0.416,18.75l-7.5,-0l-0.417,-13.333c-8.333,8.75 -15.417,14.583 -22.917,14.583m28.75,-57.5c-3.333,-1.25 -5.833,-2.083 -10,-2.083c-13.75,-0 -26.666,15 -26.666,36.666c-0,9.584 3.333,15 9.583,15c5.833,0 11.667,-5 21.667,-15.833l5.416,-33.75Z" style="fill:#fff;fill-rule:nonzero;"/></g><g><path d="M2239.14,582.413l-6.25,38.333l-8.75,-0l7.5,-46.25l0.416,-17.917l7.5,0l0.417,15.834c6.25,-9.584 14.167,-17.084 23.75,-17.084l0,8.75c-10.417,0.834 -17.917,7.917 -24.583,18.334" style="fill:#fff;fill-rule:nonzero;"/></g><g><path d="M2310.81,569.079c-5,-3.75 -9.583,-6.25 -15.833,-6.25c-12.083,0 -22.5,15 -22.5,31.667c0,12.917 6.667,20 16.667,20c5.416,-0 10,-2.083 16.25,-6.25l-0,8.333c-5,3.334 -10.834,5.417 -17.084,5.417c-14.583,-0 -24.583,-10 -24.583,-27.083c0,-21.667 13.75,-40 31.667,-40c7.5,-0 12.916,2.5 17.5,5.416l-2.084,8.75Z" style="fill:#fff;fill-rule:nonzero;"/></g><g><path d="M2373.72,574.079l-7.5,46.25l-8.75,0l7.083,-45c0.417,-1.25 0.417,-3.333 0.417,-4.166c0,-5.417 -2.5,-8.75 -7.917,-8.75c-5.833,-0 -13.333,6.25 -22.916,17.5l-6.25,40.416l-8.75,0l15.416,-95.833l8.75,-1.667l-7.5,46.667c7.917,-8.75 15.834,-14.583 23.334,-14.583c9.583,-0 15,5 15,14.166c-0,1.25 -0,3.75 -0.417,5" style="fill:#fff;fill-rule:nonzero;"/></g><g><path d="M167.475,157.829l155.417,117.5l-0,468.75l-155.417,-119.583l0,-466.667Z" style="fill:#fff;fill-rule:nonzero;"/></g></g></svg>