<svg width="697" height="372" viewBox="0 0 697 372" fill="none" xmlns="http://www.w3.org/2000/svg">
<path d="M348.138 210.325C398.778 192.097 534.447 163.137 672 193.116" stroke="#0769D2" stroke-opacity="0.5"/>
<path d="M286.881 288.025C287.244 298.177 278.975 325.185 243 352" stroke="#0769D2" stroke-opacity="0.5"/>
<path d="M330.984 264.26C371.233 265.877 469.384 280.912 540 328.116" stroke="#0769D2" stroke-opacity="0.5"/>
<path d="M312.189 161.212C340.81 130.163 426.041 60.8749 538 32.1162" stroke="#0769D2" stroke-opacity="0.5"/>
<path d="M38.3427 96.8491C52.6907 122.332 114.509 176.262 247 188.116" stroke="#0769D2" stroke-opacity="0.5"/>
<path d="M24.1099 280.905C56.58 291.128 145.216 300.083 240 254.116" stroke="#0769D2" stroke-opacity="0.5"/>
<circle cx="684.5" cy="193.616" r="12.5" fill="#70BADD" fill-opacity="0.25"/>
<circle cx="232.309" cy="356.309" r="12.5" transform="rotate(165 232.309 356.309)" fill="#70BADD" fill-opacity="0.25"/>
<circle cx="551" cy="334.116" r="13" fill="#70BADD" fill-opacity="0.25"/>
<circle cx="33.5" cy="85.0842" r="12.5" fill="#70BADD" fill-opacity="0.25"/>
<circle cx="12.5" cy="276.616" r="12.5" fill="#70BADD" fill-opacity="0.25"/>
<circle cx="295.5" cy="222.5" r="68.5" fill="#0769D2"/>
</svg>
