<svg width="32" height="30" viewBox="0 0 32 30" fill="none" xmlns="http://www.w3.org/2000/svg">
<g clip-path="url(#clip0_83_464)">
<path fill-rule="evenodd" clip-rule="evenodd" d="M2.35248 7.3355C1.65205 7.36966 1.10385 7.97132 1.13725 8.66886L1.61624 18.536C1.62196 18.7263 1.7047 18.9066 1.84581 19.0352L5.92535 22.8513C5.98493 22.9073 6.02073 22.984 6.02524 23.0655L6.05262 23.6132L11.6245 23.5806L11.7066 20.6502C11.7268 20.2385 11.5544 19.8397 11.24 19.5715L5.04349 14.0619C4.67191 13.729 4.09213 13.756 3.75335 14.1218C3.41878 14.4922 3.44676 15.0702 3.81593 15.4064L7.19173 18.4581C7.25792 18.518 7.29583 18.6031 7.29583 18.6921C7.29583 18.8656 7.15262 19.0085 6.97841 19.0085C6.89958 19.0085 6.82346 18.9791 6.76509 18.9264L3.39049 15.8741C3.06585 15.5828 2.88021 15.1675 2.88021 14.7325C2.88021 14.0781 3.30023 13.492 3.92184 13.2796L3.69227 8.54541C3.65707 7.84787 3.05291 7.30194 2.35248 7.3346V7.3355ZM12.4104 27.8359L5.28931 27.8776L5.26674 24.2503L12.3902 24.208L12.4104 27.8359ZM0.981699 18.5666C0.994035 18.9207 1.14868 19.2557 1.41074 19.4954L5.39642 23.224L5.41658 23.6171L4.94721 23.6198C4.77331 23.6204 4.63039 23.7631 4.63039 23.9362C4.63039 23.9368 4.63039 23.9371 4.63039 23.9377L4.65537 28.1976C4.65687 28.3699 4.79949 28.511 4.97249 28.5116H4.97489L12.7323 28.4664C12.816 28.4658 12.896 28.4319 12.9544 28.372C13.0136 28.3126 13.0467 28.232 13.0464 28.1481L13.0218 23.8883C13.0203 23.716 12.8776 23.5752 12.7046 23.5746H12.7022L12.2581 23.577L12.3406 20.6676C12.3653 20.0704 12.1161 19.4936 11.6642 19.1005L5.46893 13.59C5.21499 13.3635 4.89306 13.2265 4.55307 13.2005L4.32591 8.51515C4.29943 7.48861 3.44435 6.65894 2.41326 6.65894C1.36381 6.65894 0.5 7.51888 0.5 8.56429C0.5 8.60923 0.501504 8.65388 0.504814 8.69882L0.981699 18.5666ZM30.5507 8.66886C30.5516 8.65088 30.5519 8.6332 30.5519 8.61522C30.5519 7.91649 29.9745 7.34149 29.2729 7.34149C28.5974 7.34149 28.0324 7.87454 27.9956 8.54631L27.7661 13.2805C28.0107 13.3632 28.2297 13.507 28.4024 13.6982C28.9723 14.3244 28.925 15.306 28.2977 15.875L24.9225 18.9264C24.8641 18.9791 24.788 19.0085 24.7092 19.0085C24.535 19.0085 24.3918 18.8656 24.3918 18.6921C24.3918 18.6031 24.4297 18.518 24.4959 18.4581L27.8717 15.4064C28.0627 15.2344 28.172 14.9896 28.172 14.7331C28.172 14.5072 28.0871 14.289 27.9343 14.1218C27.5943 13.7551 27.013 13.7281 26.6405 14.0619L20.4488 19.5718C20.1347 19.84 19.962 20.2388 19.9822 20.6505L20.0646 23.5809L25.6362 23.6135L25.6636 23.0658C25.6681 22.9843 25.7039 22.9076 25.7635 22.8516L29.843 19.0352C29.9841 18.9066 30.0669 18.7269 30.0726 18.5366L30.5516 8.66886H30.5507ZM26.3986 27.8776L19.2772 27.8359L19.2974 24.208L26.4209 24.2503L26.3986 27.8776ZM29.3652 6.70388C28.3176 6.65594 27.4147 7.47243 27.3617 8.51575L27.1357 13.2005C26.7961 13.2265 26.4741 13.3635 26.2202 13.59L20.0261 19.1005C19.5742 19.4936 19.3251 20.0704 19.35 20.6676L19.4322 23.577L18.9881 23.5746H18.9857C18.902 23.5743 18.8211 23.6063 18.7609 23.6645C18.7026 23.7241 18.6698 23.8041 18.6689 23.8874L18.6421 28.1481C18.6421 28.2314 18.6746 28.3117 18.7323 28.372C18.7916 28.4319 18.8726 28.4661 18.9571 28.4664L26.7145 28.5116C26.8881 28.5113 27.0313 28.3705 27.0338 28.1976L27.0587 23.9377C27.0587 23.9371 27.0587 23.9365 27.0587 23.9359C27.0587 23.7628 26.9158 23.6201 26.7419 23.6198L26.2728 23.6171L26.2927 23.224L30.2772 19.4957C30.5392 19.256 30.6939 18.921 30.7062 18.5669L31.1855 8.69942C31.2348 7.65551 30.4144 6.75542 29.3664 6.70388H29.3652Z" fill="#0769D2" stroke="#0769D2" stroke-width="0.999838" stroke-miterlimit="2" stroke-linejoin="round"/>
<path d="M6.95297 6.64669C7.60196 8.18947 9.50266 11.7388 13.2652 11.7388H15.1998C14.7137 10.1946 13.9672 8.97016 12.9808 8.1116C11.8827 7.15658 10.4724 6.64669 8.77656 6.64669H6.95235H6.95297ZM9.42678 5.61587C9.35399 5.08737 9.31327 4.51959 9.3108 3.90979C9.3071 3.02711 9.38298 2.05969 9.55757 0.999244C9.60445 0.713978 9.84936 0.524489 10.1054 0.576857C10.1301 0.58168 10.1541 0.58926 10.1769 0.598217V0.597528C11.1202 0.971682 11.9351 1.40165 12.6397 1.86951C13.1326 2.19681 13.5675 2.54133 13.9512 2.89757C14.3232 2.10655 14.8235 1.27831 15.4799 0.416998C15.4978 0.392881 15.5175 0.370142 15.5391 0.349471C15.7365 0.162049 16.0333 0.188234 16.2011 0.409418C16.8599 1.27349 17.3621 2.10448 17.7353 2.89757C18.1203 2.53927 18.5558 2.19474 19.0469 1.86813L19.0475 1.86951C19.7514 1.40165 20.5669 0.972371 21.5096 0.598217V0.598907C21.5324 0.589949 21.5565 0.583058 21.5811 0.577546C21.8372 0.525178 22.0821 0.713978 22.129 0.999933C22.3036 2.06038 22.38 3.02849 22.3757 3.91048C22.3733 4.52028 22.3325 5.08806 22.2598 5.61656C22.472 5.6014 22.6891 5.59313 22.91 5.59313H25.4424C25.7027 5.59313 25.9143 5.82948 25.9143 6.12025C25.9143 6.19398 25.9008 6.26427 25.8761 6.32835C25.7175 6.81826 23.6793 12.7937 18.422 12.7937H13.2658C8.0085 12.7937 5.97023 6.81826 5.81169 6.32835C5.78701 6.26427 5.77344 6.19398 5.77344 6.12025C5.77344 5.82879 5.98504 5.59313 6.24537 5.59313H8.77779C8.99865 5.59313 9.21518 5.6014 9.42801 5.61656L9.42678 5.61587ZM13.5422 3.89118C13.148 3.4998 12.6902 3.12427 12.1603 2.77217C11.6464 2.4304 11.0591 2.10792 10.391 1.81163C10.2923 2.56545 10.2485 3.26277 10.251 3.90565C10.2541 4.57265 10.3071 5.18521 10.4015 5.74679C11.3781 5.94179 12.2535 6.31801 13.0228 6.86236C13.0184 6.15333 13.1073 5.39124 13.3269 4.58092C13.388 4.35491 13.4595 4.12477 13.5422 3.89118ZM21.2844 5.74748C21.3788 5.18521 21.4325 4.57334 21.4349 3.90634C21.438 3.26277 21.3936 2.56614 21.2949 1.81232C20.6262 2.10861 20.0395 2.43109 19.5256 2.77285L19.5244 2.77354L19.5256 2.77492C18.9932 3.1284 18.5361 3.50325 18.1437 3.89187C18.2264 4.12546 18.298 4.3556 18.359 4.58161C18.5786 5.39193 18.6675 6.15471 18.6632 6.86305C19.4318 6.31939 20.3078 5.94317 21.2844 5.74748ZM17.6607 7.72918C17.7748 6.89337 17.7415 5.9411 17.4565 4.88617C17.182 3.8712 16.6749 2.76459 15.8439 1.57873C15.0129 2.76459 14.5058 3.87189 14.2313 4.88617C13.9456 5.9411 13.913 6.89268 14.0271 7.72918C14.7822 8.51814 15.3911 9.51106 15.8445 10.6873C16.2979 9.51106 16.9062 8.51814 17.6619 7.72918H17.6607ZM18.4213 11.7394C22.1839 11.7394 24.0852 8.19016 24.7336 6.64738H22.9094C21.2135 6.64738 19.8032 7.15796 18.7051 8.11229C17.7187 8.97085 16.9722 10.1953 16.4861 11.7394H18.4213Z" fill="#0769D2" stroke="#0769D2" stroke-width="0.448564" stroke-miterlimit="2" stroke-linejoin="round"/>
</g>
<defs>
<clipPath id="clip0_83_464">
<rect width="32" height="30" fill="white"/>
</clipPath>
</defs>
</svg>
