<svg width="32" height="24" viewBox="0 0 32 24" fill="none" xmlns="http://www.w3.org/2000/svg">
<g clip-path="url(#clip0_83_495)">
<path d="M2.00648 12.0439H9.37953C10.2436 12.0439 10.9485 11.3768 10.9485 10.5571L10.9469 5.38883C10.9469 4.93409 10.7693 4.53026 10.4335 4.2228L6.69971 0.795587C6.12507 0.267601 5.25781 0.267601 4.68317 0.795587L3.65666 1.73797L1.31848 3.88477L0.95095 4.22123C0.615187 4.5287 0.4375 4.93252 0.4375 5.38726V10.5571C0.4375 11.3768 1.14237 12.0439 2.00648 12.0439ZM6.88092 11.2652H4.4945V7.60535H6.88092V11.2652ZM1.21728 5.38844C1.21728 5.1499 1.30319 4.9572 1.47774 4.79504L1.97118 4.34187C2.05081 4.26862 3.41465 3.01681 3.52958 2.91145L5.21192 1.36783C5.4861 1.11676 5.89835 1.11676 6.17253 1.36783L9.90632 4.79504C10.0828 4.95563 10.1668 5.1499 10.1668 5.38844V10.5567C10.1668 10.9468 9.81296 11.2652 9.37796 11.2652H7.44105L7.44262 7.2168C7.44262 7.00099 7.26807 6.82826 7.05351 6.82826H4.33368C4.11794 6.82826 3.94457 7.00256 3.94457 7.2168V11.2652H2.00648C1.57109 11.2652 1.21728 10.9468 1.21728 10.5567V5.38844ZM30.078 3.27414H27.8057V1.33297C27.8057 0.835929 27.4013 0.431715 26.9031 0.431715H24.3414C23.8436 0.431715 23.4388 0.835929 23.4388 1.33297V3.27414H21.1665C20.4099 3.27414 19.7952 3.88908 19.7952 4.64346V10.6746C19.7952 11.4301 20.4114 12.0439 21.1665 12.0439H30.0764C30.8334 12.0439 31.4481 11.4289 31.4481 10.6746L31.4492 4.64346C31.4492 3.88752 30.8334 3.27414 30.078 3.27414ZM23.8546 0.840238C23.8546 0.774435 23.9111 0.717642 23.977 0.717642H27.1075C27.1734 0.717642 27.2303 0.774435 27.2303 0.840238V3.27414H23.8546V0.840238ZM30.078 11.2652H21.1681C20.8417 11.2652 20.5766 11.0004 20.5766 10.6746V7.00686C20.7562 7.09264 20.9567 7.14317 21.1681 7.14317H30.078C30.2894 7.14317 30.4902 7.09264 30.6695 7.00686V10.6746C30.6695 11.0004 30.4043 11.2652 30.078 11.2652ZM30.078 6.36451H21.1681C20.8417 6.36451 20.5766 6.09973 20.5766 5.77385V4.64307C20.5766 4.31719 20.8417 4.05241 21.1681 4.05241H30.078C30.4043 4.05241 30.6695 4.31719 30.6695 4.64307V5.77385C30.6695 6.09973 30.4043 6.36451 30.078 6.36451Z" fill="#0769D2" stroke="#0769D2" stroke-width="0.799605" stroke-miterlimit="2" stroke-linejoin="round"/>
<path d="M31.048 14.8334L19.9538 14.8587L19.9326 14.8347C19.5962 14.4477 18.7062 13.272 17.6987 12.5671C17.237 12.2438 16.7506 12.0199 16.2815 12.0159C15.0044 12.0044 13.084 14.2703 12.5946 14.8347L12.5733 14.8587L0.83505 14.8337C0.648949 14.8337 0.5 14.984 0.5 15.1688C0.5 15.3545 0.6503 15.5038 0.83505 15.5038L12.2433 15.5065L9.47407 18.6912C8.82086 19.442 8.67191 20.4711 9.08464 21.3763C9.49771 22.2811 10.3711 22.8432 11.3658 22.8432H21.1593C22.1543 22.8432 23.0274 22.2811 23.4405 21.3763C23.8535 20.4711 23.7042 19.442 23.0514 18.6912L20.2821 15.5065H31.0466C31.2324 15.5065 31.3817 15.3559 31.3817 15.1715C31.3844 14.984 31.2337 14.8334 31.048 14.8334ZM1.1701 14.8347V15.5052L11.99 15.5302L12.8279 14.8347H1.1701ZM22.8312 21.0977C22.5251 21.7708 21.8996 22.1717 21.161 22.1717H11.3675C10.6285 22.1717 10.0033 21.7708 9.69699 21.0977C9.39098 20.4249 9.4967 19.6899 9.98205 19.1319L14.8781 13.4982C15.2422 13.0788 15.708 12.8663 16.2636 12.8663C16.8188 12.8663 17.2846 13.0788 17.6487 13.4982L22.5447 19.1319C23.0304 19.6899 23.1372 20.4249 22.8312 21.0977ZM30.7129 14.8347H19.7005L20.5385 15.5302L30.7133 15.5052L30.7129 14.8347Z" fill="#0769D2" stroke="#0769D2" stroke-width="0.999746" stroke-miterlimit="2" stroke-linejoin="round"/>
</g>
<defs>
<clipPath id="clip0_83_495">
<rect width="32" height="24" fill="white"/>
</clipPath>
</defs>
</svg>
