<svg width="32" height="32" viewBox="0 0 32 32" fill="none" xmlns="http://www.w3.org/2000/svg">
<g clip-path="url(#clip0_135_347)">
<path d="M17.6676 27.6391C17.6938 27.8454 17.5478 28.0326 17.346 28.0588C16.8515 28.1217 16.3326 28.1554 15.8002 28.1554C15.5939 28.1554 15.4258 27.9873 15.4258 27.781C15.4258 27.5747 15.5939 27.4066 15.8002 27.4066C16.2974 27.4066 16.7845 27.3774 17.2494 27.3175C17.4557 27.2909 17.6429 27.4328 17.6676 27.6391ZM27.0465 19.945C26.8548 19.866 26.6384 19.9596 26.5594 20.1513C25.2782 23.322 22.6766 25.7555 19.4239 26.8304C19.2296 26.8948 19.1214 27.1067 19.1843 27.3025C19.2367 27.4605 19.3831 27.5616 19.5396 27.5616C19.5774 27.5616 19.6186 27.5541 19.6549 27.5425C23.118 26.4002 25.8851 23.8102 27.2479 20.4366C27.3314 20.2408 27.2408 20.0244 27.0461 19.9454L27.0465 19.945ZM31.1502 15.8005C31.1502 24.2651 24.2648 31.1505 15.8002 31.1505C7.3356 31.1505 0.450195 24.2651 0.450195 15.8005C0.450195 7.33591 7.3356 0.4505 15.8002 0.4505C18.7062 0.4505 21.4235 1.26368 23.7414 2.67063C23.753 2.67775 23.7676 2.67775 23.7751 2.68523C23.7822 2.68935 23.7867 2.69684 23.7942 2.70433C28.2034 5.40368 31.1502 10.2636 31.1502 15.8005ZM23.6433 3.49392C22.9765 4.2573 22.0566 4.73277 21.1161 4.79979C20.8908 4.81888 20.6673 4.81177 20.4535 4.80428C20.1581 4.79679 19.8773 4.78519 19.6231 4.83798C18.7807 5.01057 18.3007 5.81476 18.1326 6.15283C17.9454 6.53434 17.8226 6.94242 17.6912 7.37372C17.5976 7.6811 17.4995 7.9997 17.3767 8.31419C17.1937 8.78218 16.9642 9.18277 16.6995 9.50475C16.625 9.59385 16.6351 9.67996 16.6587 9.73724C16.6965 9.83496 16.7976 9.90235 16.9204 9.91695C17.2992 9.96225 17.6882 9.95813 18.0772 9.90984C18.2086 9.89524 18.3389 9.87165 18.4703 9.84994C18.9091 9.77506 19.3655 9.70055 19.8335 9.79715C20.2824 9.89524 20.695 10.2007 20.8777 10.5867C21.0166 10.875 21.0196 11.182 20.8852 11.4482C20.8706 11.4819 20.847 11.5126 20.8208 11.5373C20.0866 12.3243 18.8597 12.3651 18.0012 12.3273L17.7466 12.3157C16.9597 12.2775 16.148 12.2408 15.5295 12.5815C14.9387 12.9106 14.589 13.6039 14.6871 14.2737C14.7762 14.9244 15.2633 15.5388 15.9522 15.872C16.1057 15.9469 16.2712 16.0113 16.4348 16.0712C16.7201 16.1794 17.011 16.2921 17.2816 16.4673C18.0259 16.9499 18.3404 17.7368 18.4763 18.3059C18.5961 18.8147 18.6182 19.328 18.6418 19.8222C18.6489 19.9716 18.6564 20.1251 18.6635 20.2756C18.6927 20.7028 18.75 21.1516 18.9488 21.5189C19.1068 21.8038 19.4213 22.1213 19.8436 22.1591C20.1727 22.1857 20.5546 22.0176 20.8354 21.7207C21.1161 21.425 21.2989 21.0434 21.4905 20.6429C21.9102 19.7477 22.3374 18.8379 22.4527 17.9139C22.4789 17.7046 22.4939 17.4867 22.5085 17.2659C22.5639 16.4527 22.6238 15.5283 23.3217 14.8967C23.4194 14.8076 23.5351 14.7166 23.6504 14.6305C23.8833 14.4549 24.1184 14.2752 24.0997 14.1333C24.0877 14.0588 24.0016 13.9506 23.9196 13.8451C23.8818 13.7968 23.8451 13.7515 23.8114 13.7032C23.5261 13.3217 23.4928 12.902 23.7294 12.6096C23.9357 12.3505 24.2955 12.2539 24.7212 12.3404C25.4961 12.4984 26.1895 13.0963 26.6223 13.9839C26.7979 14.3437 26.9248 14.7181 27.0491 15.0779C27.1648 15.4145 27.2745 15.7331 27.4164 16.036C27.5145 16.2494 27.6182 16.3651 27.7193 16.3883C27.8084 16.4074 27.9398 16.3329 28.0188 16.2202C28.1083 16.0929 28.1607 15.9278 28.218 15.7522L28.2588 15.6178C28.5849 14.626 29.2501 13.7413 30.1453 13.1023C29.3905 9.07607 26.9791 5.62757 23.6433 3.49392ZM1.21058 15.4306C1.51758 15.3108 1.87325 15.2726 2.23267 15.3445C2.76804 15.4452 3.22143 15.7335 3.62502 15.9847L6.79573 17.9693C7.19932 18.2209 7.3502 18.1977 7.40561 18.161C7.4876 18.1056 7.49172 17.8993 7.4131 17.7338C7.34571 17.5994 7.24051 17.4676 7.12782 17.3261C7.03871 17.2134 6.94511 17.0978 6.85863 16.9633C6.35245 16.1663 6.38615 15.0461 6.95223 14.1071C7.473 13.2427 8.31089 12.662 8.98516 12.2543L9.28056 12.0787C9.92114 11.6998 10.5265 11.3415 10.8833 10.7829C11.2768 10.1614 11.3558 9.28536 11.1158 8.10678C10.9578 7.33141 10.7152 6.87803 10.3524 6.68372C9.92264 6.45122 9.40186 6.59461 8.79947 6.75523C8.42508 6.85631 8.03871 6.96152 7.6426 6.97612C6.69502 7.01431 5.76616 6.50102 5.26448 5.70656C2.82795 8.25279 1.30418 11.668 1.21058 15.4306ZM12.4423 21.0041C12.5505 20.8697 12.6748 20.7525 12.7946 20.6443C12.9339 20.5171 13.0608 20.3973 13.1282 20.2774C13.2862 19.9821 13.0537 19.6223 12.9792 19.5167C12.5928 18.9843 11.8032 18.5852 10.8642 18.4388C10.3625 18.3602 9.82305 18.5137 9.14166 18.708C8.82717 18.7975 8.48198 18.8952 8.10759 18.9772C8.35469 19.568 8.42208 20.033 8.28318 20.7746L8.25398 20.9236C8.20568 21.1666 8.16038 21.377 8.2274 21.541C8.3019 21.7282 8.53477 21.9008 8.78187 22.076C8.97618 22.2179 9.17535 22.3643 9.34346 22.5485C9.84926 23.1056 9.86685 23.7915 9.88295 24.3984C9.89044 24.754 9.89755 25.0872 9.99564 25.3826C10.0365 25.5099 10.1637 25.8098 10.4636 25.8888C10.8451 25.9895 11.2607 25.7016 11.5048 25.4253C11.9507 24.9161 12.1937 24.2947 12.1862 23.6762C12.1821 23.4669 12.157 23.249 12.1308 23.0165C12.0372 22.3673 11.9481 21.6331 12.4423 21.0041ZM30.4014 15.8009C30.4014 15.1719 30.3561 14.5579 30.2816 13.948C29.6672 14.4684 29.2108 15.1266 28.9753 15.8537L28.9375 15.9765C28.8701 16.1899 28.7956 16.4328 28.6376 16.6534C28.4314 16.9461 28.0278 17.2033 27.586 17.1258C27.2307 17.0543 26.9499 16.7967 26.7436 16.355C26.583 16.0143 26.4628 15.662 26.3475 15.3183C26.2277 14.963 26.112 14.6294 25.9585 14.3108C25.8005 13.9918 25.3557 13.2329 24.5808 13.0719C24.4419 13.0427 24.3408 13.0603 24.3191 13.0764C24.3191 13.0764 24.3483 13.1554 24.4243 13.2591C24.4535 13.2999 24.4842 13.3411 24.5179 13.3789C24.6496 13.547 24.8177 13.7533 24.8544 14.0341C24.9289 14.6073 24.458 14.963 24.1128 15.2247C24.0147 15.2992 23.9181 15.3711 23.8365 15.4497C23.361 15.8799 23.3157 16.5773 23.2674 17.3145C23.2528 17.547 23.2382 17.778 23.2075 18.0034C23.0761 19.0476 22.6238 20.0098 22.1854 20.9427C21.9686 21.3991 21.7507 21.8525 21.3883 22.2344C20.9802 22.6612 20.4378 22.9083 19.917 22.9083C19.8762 22.9083 19.8309 22.9083 19.7897 22.9042C19.1873 22.8514 18.6182 22.4579 18.2996 21.8787C18.0304 21.3845 17.963 20.842 17.9252 20.3257C17.9132 20.1678 17.9061 20.0113 17.8986 19.8578C17.8769 19.3752 17.8533 18.9218 17.7526 18.4759C17.6062 17.8585 17.2992 17.3673 16.8811 17.0936C16.6793 16.9622 16.4318 16.8686 16.1776 16.7675C16.002 16.7001 15.8148 16.6286 15.6351 16.5425C14.7253 16.0963 14.0817 15.2655 13.9574 14.3748C13.823 13.4055 14.3243 12.3977 15.1817 11.9226C15.9859 11.4763 16.9481 11.5216 17.7949 11.5628L18.0465 11.5744C18.7354 11.6036 19.7051 11.5815 20.2446 11.0656C20.2521 11.0319 20.2521 10.9791 20.2184 10.9046C20.1364 10.729 19.9155 10.571 19.6946 10.5227C19.3614 10.4557 18.9986 10.5156 18.6096 10.5785C18.4677 10.6002 18.3243 10.6268 18.1869 10.6429C17.738 10.6983 17.2891 10.7028 16.8503 10.65C16.4539 10.6047 16.1203 10.3576 15.9814 10.0094C15.847 9.67622 15.9069 9.30595 16.1424 9.02104C16.3588 8.75896 16.546 8.43025 16.6995 8.03227C16.8122 7.74699 16.9013 7.45609 16.9949 7.14909C17.1296 6.7103 17.2685 6.25392 17.4819 5.81963C17.9383 4.89526 18.6695 4.26928 19.4928 4.10118C19.838 4.02967 20.1746 4.04128 20.5007 4.05288C20.7069 4.06037 20.8968 4.06449 21.084 4.05288C21.7919 4.00047 22.4838 3.65228 23.0117 3.09519C20.8661 1.89302 18.4138 1.19966 15.8002 1.19966C11.9406 1.19966 8.42508 2.70882 5.81146 5.16444C6.14055 5.81251 6.87473 6.26141 7.60142 6.23221C7.91591 6.2176 8.24911 6.12663 8.5973 6.03303C9.25997 5.85782 10.0087 5.65452 10.7017 6.02592C11.4621 6.434 11.7197 7.32468 11.847 7.96226C12.1233 9.33964 12.0151 10.3958 11.5134 11.1899C11.06 11.9005 10.3494 12.3202 9.66056 12.7282L9.37228 12.9008C8.77289 13.2636 8.0286 13.7724 7.59393 14.4965C7.25324 15.0697 7.08813 15.9297 7.49322 16.5672C7.56061 16.6724 7.63511 16.766 7.71411 16.8626C7.84852 17.0281 7.9833 17.1992 8.0885 17.4126C8.20119 17.6451 8.24649 17.9334 8.1967 18.1951C8.4554 18.1307 8.7025 18.0633 8.94099 17.9933C9.68265 17.784 10.3187 17.6043 10.9855 17.705C12.1349 17.8851 13.0855 18.3868 13.5917 19.0873C13.966 19.6005 14.0406 20.1838 13.7935 20.6402C13.6707 20.8727 13.479 21.0483 13.3109 21.2018C13.2098 21.2954 13.1121 21.3845 13.0417 21.4751C12.7392 21.857 12.8021 22.3557 12.8736 22.9319C12.9028 23.1748 12.9335 23.4261 12.938 23.6762C12.9451 24.4777 12.6381 25.2748 12.0694 25.9225C11.7227 26.2984 11.1918 26.6582 10.6141 26.6582C10.4984 26.6582 10.3816 26.6436 10.2615 26.6129C9.80096 26.4931 9.44117 26.1258 9.27307 25.6125C9.14129 25.2119 9.13417 24.8083 9.12369 24.4148C9.10909 23.8723 9.09748 23.4044 8.7785 23.0517C8.66319 22.9248 8.5022 22.8091 8.3326 22.6818C8.02972 22.4609 7.68191 22.2067 7.52841 21.8203C7.37903 21.4504 7.45354 21.0906 7.51643 20.7761L7.54301 20.6372C7.67031 19.9484 7.59131 19.6223 7.25473 18.9263C6.88034 18.9042 6.53516 18.6938 6.39326 18.6002L3.22592 16.6155C2.86314 16.3875 2.48426 16.152 2.09077 16.076C1.79538 16.0203 1.42099 16.0715 1.21507 16.3085C1.48389 24.1269 7.9189 30.4024 15.8002 30.4024C23.8496 30.4024 30.4014 23.8503 30.4014 15.8009Z" fill="#0769D2" stroke="#0769D2" stroke-width="0.898536" stroke-miterlimit="2" stroke-linejoin="round"/>
</g>
<defs>
<clipPath id="clip0_135_347">
<rect width="32" height="32" fill="white"/>
</clipPath>
</defs>
</svg>
