<svg width="34" height="29" viewBox="0 0 34 29" fill="none" xmlns="http://www.w3.org/2000/svg">
<path d="M7.61796 11.0267H4.52378C3.01336 11.0267 1.78037 12.2457 1.78037 13.742V19.8991C1.78037 20.1117 1.60518 20.2849 1.39019 20.2849C1.17519 20.2849 1 20.1117 1 19.8991V13.742C1 11.8179 2.58065 10.2552 4.5269 10.2552H7.62108C9.56421 10.2552 11.148 11.8179 11.148 13.742L11.1495 16.0415C11.1495 16.2541 10.9743 16.4273 10.7594 16.4273C10.5444 16.4273 10.3692 16.2541 10.3692 16.0415V13.742C10.3645 12.2457 9.13149 11.0267 7.61796 11.0267ZM20.0797 17.1988H13.916C10.6649 17.1988 8.02336 19.8104 8.02336 23.0245V27.6142C8.02336 27.8268 8.19856 28 8.41355 28C8.62854 28 8.80374 27.8268 8.80374 27.6142V23.0245C8.80374 20.2382 11.0976 17.9703 13.916 17.9703H20.0813C22.8981 17.9703 25.192 20.2382 25.192 23.0245V27.6142C25.192 27.8268 25.3672 28 25.5822 28C25.7971 28 25.9723 27.8268 25.9723 27.6142V23.0245C25.9723 19.8104 23.3312 17.1988 20.0797 17.1988ZM29.4684 10.2552H26.3742C24.4311 10.2552 22.8505 11.8179 22.8505 13.742V16.0415C22.8505 16.2541 23.0257 16.4273 23.2406 16.4273C23.4556 16.4273 23.6308 16.2541 23.6308 16.0415V13.742C23.6308 12.2457 24.8638 11.0267 26.3774 11.0267H29.4715C30.9851 11.0267 32.2181 12.2457 32.2181 13.742L32.2196 19.8991C32.2196 20.1117 32.3948 20.2849 32.6098 20.2849C32.8248 20.2849 33 20.1117 33 19.8991V13.742C32.9953 11.8179 31.4147 10.2552 29.4684 10.2552ZM13.0958 24.1424C12.8808 24.1424 12.7056 24.3156 12.7056 24.5282V27.6142C12.7056 27.8268 12.8808 28 13.0958 28C13.3108 28 13.486 27.8268 13.486 27.6142V24.5282C13.486 24.3156 13.3108 24.1424 13.0958 24.1424ZM20.8995 24.1424C20.6845 24.1424 20.5093 24.3156 20.5093 24.5282V27.6142C20.5093 27.8268 20.6845 28 20.8995 28C21.1145 28 21.2897 27.8268 21.2897 27.6142V24.5282C21.2897 24.3156 21.1145 24.1424 20.8995 24.1424ZM1.83539 8.5239C1.76516 8.4047 1.76516 8.26159 1.83071 8.14277L5.73258 1.19915C5.86992 0.956506 6.27845 0.956506 6.4154 1.19915L10.3173 8.14277C10.3844 8.26159 10.3844 8.40933 10.313 8.5239C10.2396 8.63847 10.1116 8.71215 9.9743 8.71215H2.17056C2.0336 8.71215 1.90562 8.63847 1.83539 8.5239ZM2.83388 7.94064H9.31176L6.07282 2.17704L2.83388 7.94064ZM12.706 14.4985V6.78337C12.706 6.5712 12.8812 6.39761 13.0962 6.39761H20.8999C21.1145 6.39761 21.2901 6.5712 21.2901 6.78337V14.4985C21.2901 14.7111 21.1145 14.8843 20.8999 14.8843H13.0962C12.8812 14.8843 12.706 14.7111 12.706 14.4985ZM13.4864 14.1127H20.5097V7.16912H13.4864V14.1127ZM24.1342 5.12885C23.9816 4.97841 23.9816 4.73577 24.1342 4.58494L27.6459 1.11312C27.798 0.962292 28.0435 0.962292 28.196 1.11312L31.7077 4.58494C31.8599 4.73577 31.8599 4.97841 31.7077 5.12885L28.196 8.60067C28.1227 8.67319 28.0251 8.71215 27.9233 8.71215C27.821 8.71215 27.7235 8.67319 27.6459 8.60067L24.1342 5.12885ZM24.9618 4.85458L27.9233 7.78248L30.8844 4.85458L27.9233 1.92707L24.9618 4.85458Z" fill="#0769D2" stroke="#0769D2" stroke-width="0.898814" stroke-miterlimit="2" stroke-linejoin="round"/>
</svg>
